<?xml version="1.0" encoding="UTF-8" standalone="no"?>
<svg xmlns:rdf="http://www.w3.org/1999/02/22-rdf-syntax-ns#" xmlns="http://www.w3.org/2000/svg" height="477.96pt" width="716.29pt" version="1.1" xmlns:cc="http://creativecommons.org/ns#" xmlns:dc="http://purl.org/dc/elements/1.1/" viewBox="0 0 716.29041 477.96061">
 <path style="color-rendering:auto;color:#000000;isolation:auto;mix-blend-mode:normal;shape-rendering:auto;solid-color:#000000;image-rendering:auto" fill-rule="evenodd" fill="#fff" d="m0 0h716.29v477.96h-716.29z"/>
 <g transform="translate(-.011533 -.028192)">
  <path fill="#fffffe" d="m183.3 313.35c0.28 0.13 0.85 0.41 1.13 0.54 1.65 6.1 4.38 11.83 6.49 17.78-4.8 0-9.59-0.03-14.38 0.02 2.05-6.19 4.72-12.15 6.76-18.34z"/>
  <g fill="#01237d">
   <path d="m252.55 310.27c4.61-3.49 10.74-3.17 16.15-2.39 2.73 0.91 5.43 2.36 7.28 4.64 1.72 1.98 2.34 4.66 3.1 7.12-1.29 0.03-2.57-0.04-3.85 0-0.94-2.11-1.69-4.39-3.44-5.98-4.12-3.44-10.22-3.96-15.05-1.8-3.17 1.42-5.3 4.44-6.43 7.64-1.25 4.39-1.73 9.11-0.57 13.58 0.99 4.66 3.86 9.38 8.64 10.86 4.87 1.47 10.89 0.46 14.21-3.65 2.34-2.74 3.01-6.44 3.33-9.92-4.23-0.07-8.46-0.05-12.69-0.03-0.04-1.2-0.07-2.4-0.1-3.59 5.36-0.02 10.71 0.06 16.07-0.04 0.27 6.73 0.17 13.385 0.08 20.125-0.78-0.05-2.33 0.05-3.11 0-0.1-1.92-0.22-3.945-0.35-5.865-5.54 9.3-20.74 9.18-26.7 0.4-2.44-3.27-3.2724-7.5568-3.7698-11.27-0.49743-3.7132-0.15494-6.9694 0.82006-10.48 0.97487-3.5106 3.01-7.27 6.38-9.35z"/>
   <path d="m484.53 317.83c1.9271-4.5549 6.1095-8.7106 10.85-10.12 4.7837-1.4226 10.62-0.78 14.75 2.57 3.11 2.07 4.32 5.84 5.05 9.32h-3.84c-0.75-2-1.12-4.23-2.81-5.7-5.41-5.47-15.87-4.06-19.39 2.88-3.01 6.59-3.08 14.52-0.06 21.12 1.39 2.51 3.654 4.6851 6.27 5.82 2.5199 1.0932 5.5628 1.2756 8.22 0.57991 2.1393-0.56009 4.1392-1.9388 5.54-3.6499 1.438-1.7566 1.95-4.115 2.55-6.315h3.69c-0.34 3.52-1.65 7.065-4.17 9.625-4.14 3.89-10.447 4.7134-15.65 3.49-4.2401-0.99705-8.3426-4.2669-10.15-8.23-3.0953-6.7869-3.4524-15.239-0.85006-21.39z"/>
   <path d="m181.42 308.38c1.49 0 3.3101 0 4.8101 0.01l14.35 38.55c-1.15 0.01-2.6101-0.03-3.7601 0-1.68-3.86-3.12-7.56-4.38-11.59-5.76-0.19-11.52-0.05-17.27-0.11-1.4 3.91-2.9 7.81-4.36 11.7-1.35-0.08-2.6201 0.08-3.9701 0l14.66-38.56m1.8001 5.24c-2.04 6.19-4.71 11.88-6.76 18.07 4.79-0.05 9.58-0.02 14.38-0.02-2.11-5.95-4.84-11.95-6.49-18.05z"/>
   <path d="m329.68 308.38c8.41-0.01 16.835-0.06 25.255 0 0 1.07-0.01 2.14 0 3.22-7.2 0.01-14.27 0-21.47 0v13.875c6.46-0.11 13.015 0.01 19.485 0v3.11c-6.45 0.09-13.035 0.12-19.485 0v15.04c7.44-0.06 14.85-0.02 22.29 0 0.03 0.78-0.04 2.36 0 3.14h-26.105c0.02-12.81 0-25.585 0.03-38.385z"/>
   <path d="m404.36 308.4h4.3649l21.09 32.045v-32.045h3.9597v38.775h-3.66l-21.84-32.05c-0.36 10.68 0.1 21.37-0.25 32.05h-3.6649z"/>
   <path d="m559.96 308.4h4.24l11.015 17.76 11.065-17.76h4.29l-13.515 21.455v16.965h-3.68v-16.965z"/>
  </g>
 </g>
 <g fill="#01237d" transform="matrix(3.4664 0 0 3.4664 -2190.8 -3955.2)">
  <g transform="matrix(1.25 0 0 -1.25 722.93 1168.3)">
   <path d="m0 0c0.802-3.812 3.813-6.812 7.634-7.604l0.146-0.474c-4.182 0.766-7.482 4.055-8.256 8.23l0.476-0.152z" fill="#01237d"/>
  </g>
  <g transform="matrix(1.25 0 0 -1.25 719.75 1166.1)">
   <path d="m0 0 9.116-2.911 3.078-9.913v13.078l-2.533-2.334-9.661 2.08z" fill="#01237d"/>
  </g>
  <g transform="matrix(1.25 0 0 -1.25 751.36 1165.8)">
   <path d="m0 0h-13.095l2.336-2.53-2.082-9.645 2.916 9.103 9.925 3.072z" fill="#01237d"/>
  </g>
  <g transform="matrix(1.25 0 0 -1.25 737.54 1177.8)">
   <path d="m0 0c3.818 0.801 6.82 3.806 7.615 7.621l0.474 0.147c-0.766-4.176-4.06-7.471-8.242-8.244l0.153 0.476z" fill="#01237d"/>
  </g>
  <g>
   <path d="m734.74 1142.8h0.675v5.2812h-0.675v-5.2812z"/>
   <path d="m758.01 1166.1h-5.2812v-0.6737h5.2812v0.6737z"/>
   <path d="m735.41 1188.7h-0.6725v-5.2825h0.6725v5.2825z"/>
  </g>
  <g transform="matrix(1.25 0 0 -1.25 722.33 1163.5)">
   <path d="m0 0c0.766 4.177 4.06 7.471 8.242 8.243l-0.152-0.474c-3.819-0.802-6.822-3.808-7.615-7.622l-0.475-0.147z" fill="#01237d"/>
  </g>
  <path d="m712.15 1165.4h5.2825v0.6738h-5.2825v-0.6738z"/>
  <g transform="matrix(1.25 0 0 -1.25 734.67 1150.6)">
   <path d="m0 0-2.915-9.103-9.926-3.073h13.096l-2.336 2.53 2.081 9.646z" fill="#01237d"/>
  </g>
  <g transform="matrix(1.25 0 0 -1.25 750.23 1165.5)">
   <path d="m0 0-9.117 2.911-3.078 9.912v-13.078l2.534 2.334 9.661-2.079z" fill="#01237d"/>
  </g>
  <g transform="matrix(1.25 0 0 -1.25 747.05 1163.3)">
   <path d="m0 0c-0.802 3.812-3.814 6.814-7.636 7.606l-0.147 0.473c4.186-0.765 7.486-4.055 8.259-8.232l-0.476 0.153z" fill="#01237d"/>
  </g>
 </g>
 <path opacity="0" d="m212.19 188.6 36.27 55.34h-36.21z"/>
 <path d="m274.4 132.14c4.07-1.05 8.1-2.29 12.26-2.98-18.6 6.71-37.21 13.45-55.36 21.31l56.92 85.4c0.25-31.45 0.04-62.86 0.11-94.32 15.01 0.02 30.02-0.05 45.03 0 0.05 30.46-0.17 60.9 0.11 91.36 7.58-1.62 15.18-3.24 22.64-5.32-0.35-9.57-0.91-19.26 0.9-28.72 2.89-17.21 12.15-33.69 26.78-43.56 9.59-6.91 21-10.7 32.49-13 12.91-2.5 26.14-2.5 39.23-1.77 11.38 0.91 22.76 3.01 33.39 7.27 6.1 2.72 12.04 6.14 16.64 11.07 8.21 7.92 12.19 19.37 12.65 30.6-16.41 0.07-32.83-0.03-49.25 0.06-1.08-5.19-2.84-10.54-6.85-14.24-3.89-3.98-9.54-5.42-14.89-6.02-8.08-0.66-16.55 0.26-23.78 4.15-6.3 3.26-11.17 8.92-14.07 15.34-3.4 7.55-4.41 15.9-4.72 24.09 7.42-2.47 14.7-5.35 21.91-8.35 2.94-1.28 5.86-2.63 8.98-3.42-21.47 13.88-45.18 23.86-69.25 32.27-16.34 5.53-32.9 10.41-49.71 14.28-11.189 2.3201-20.028 4.4921-30.2 6.23-20.834 3.5597-41.84 6.34-62.94 7.42-22.13 0.75-44.67-0.01-66.03-6.37-7.42-2.11-14.45-5.56-20.66-10.12-1.44-1.33-2.86-2.67-4.29-4.01 11.52-3.44 23.13-6.53 34.66-9.93-0.06-13.3 0.24-26.6-0.16-39.89-4.32 4.15-8.47 8.92-9.86 14.91-0.8 5-0.5 10.26 1.63 14.91 0.04 0.4 0.13 1.21 0.17 1.61-9.84 4.85-19.27 10.5-29.12 15.33-4.14-6.03-5.41-13.84-3.06-20.8 3.63-11.34 12.54-19.83 21.38-27.32 6.05-4.71 12.28-9.23 18.99-12.97 0.13-11.7 0.01-23.39 0.06-35.09 19.73-0.01 39.46-0.2 59.18 0 0.94 1.71 1.93 3.44 2.91 5.13 14.74-5.8 29.95-10.26 45.18-14.54m-62.21 56.46c-0.06 18.3-0.16 37.03 0.06 55.34h36.21z" fill="#01237d"/>
 <g fill="#6679bb" transform="translate(-.011533 -.028192)">
  <path d="m543.65 142.24h47.105v140.92h-47.105z"/>
  <path d="m391.86 230.54c4.66-1.81 9.05-4.27 13.86-5.68 1.34 7.66 4.23 15.42 10.08 20.8 6.39 6.44 15.66 9.46 24.63 9.1 7.15 0.38 14.66-0.79 20.59-5.05 6.65-4.45 10.27-12.27 11.24-20.03 16.57-0.07 33.15-0.04 49.73-0.01-1.09 14.17-6.76 28.63-18.15 37.64-13.62 10.92-31.38 14.54-48.37 15.98-12.32 0.55-24.75 1.05-36.98-0.79-13.34-1.74-26.57-6.07-37.59-13.93-9.06-6.7-16.54-15.78-20.34-26.48 10.53-3.58 21.03-7.26 31.3-11.55z"/>
  <path d="m315.5 254.84c5.97-1.38 11.88-3.02 17.74-4.82 0.25 11.21 0.18 22.385 0.02 33.605h-60.59c-3.83-6.09-7.9-12.045-11.64-18.205 5.77-1.05 11.63-1.58 17.4-2.66 12.49-1.97 24.76-5.04 37.07-7.92z"/>
  <path d="m167.14 264.2c6.07 0.72 12.04 2.13 18.14 2.57 8.92 1.08 17.91 1.24 26.88 1.52-0.03 5.13-0.03 10.215-0.05 15.335h-44.95c-0.04-6.46-0.02-12.965-0.02-19.425z"/>
 </g>
 <g fill-rule="evenodd" fill="#01237d" transform="translate(-.011533 -.028192)">
  <path d="m7.3282 421.27v-23.765h3.226l12.482 18.659v-18.659h3.0152v23.765h-3.226l-12.482-18.675v18.675z"/>
  <path d="m28.743 421.27 9.1268-23.765h3.3881l9.7266 23.765h-3.5826l-2.7721-7.1977h-9.9373l-2.61 7.1977zm6.8572-9.759h8.0568l-2.4803-6.5816c-0.75651-1.9994-1.3185-3.6421-1.6859-4.9281-0.3026 1.5238-0.72949 3.0368-1.2807 4.5391z"/>
  <path d="m57.112 421.27v-20.961h-7.8299v-2.8045h18.837v2.8045h-7.8623v20.961z"/>
  <path d="m69.951 409.69c0-3.9447 1.0591-7.0301 3.1773-9.2564 2.1182-2.2371 4.8525-3.3557 8.2027-3.3557 2.1939 0 4.1716 0.52415 5.9332 1.5725 1.7616 1.0483 3.1017 2.5127 4.0203 4.3932 0.92943 1.8697 1.3941 3.9933 1.3941 6.3709 0 2.41-0.48633 4.5661-1.459 6.4682-0.97266 1.9021-2.3506 3.3448-4.1338 4.3283-1.7832 0.97265-3.7069 1.459-5.7711 1.459-2.2371 0-4.2365-0.54036-5.998-1.6211-1.7616-1.0807-3.0963-2.5559-4.0041-4.4256-0.90781-1.8697-1.3617-3.8474-1.3617-5.9332zm3.2422 0.0486c0 2.8639 0.76732 5.1227 2.302 6.7762 1.5454 1.6427 3.4799 2.4641 5.8035 2.4641 2.3668 0 4.3121-0.83216 5.8359-2.4965 1.5346-1.6643 2.302-4.0257 2.302-7.0842 0-1.9345-0.32962-3.6204-0.98887-5.0578-0.64844-1.4482-1.6049-2.5667-2.8693-3.3557-1.2536-0.79974-2.664-1.1996-4.2311-1.1996-2.2263 0-4.1446 0.76732-5.7549 2.302-1.5995 1.5238-2.3992 4.0744-2.3992 7.6516z"/>
  <path d="m122.88 412.93 3.1449 0.79433c-0.65924 2.583-1.848 4.5553-3.5664 5.917-1.7076 1.3509-3.7988 2.0264-6.2736 2.0264-2.5613 0-4.6471-0.51875-6.2574-1.5562-1.5995-1.0483-2.8207-2.5613-3.6637-4.5391-0.83216-1.9777-1.2482-4.1014-1.2482-6.3709 0-2.4749 0.47012-4.6309 1.4104-6.4682 0.95104-1.848 2.2966-3.2476 4.0365-4.1986 1.7508-0.96185 3.6745-1.4428 5.7711-1.4428 2.3776 0 4.377 0.60521 5.998 1.8156 1.6211 1.2104 2.7505 2.9126 3.3881 5.1064l-3.0963 0.7295c-0.55117-1.7292-1.3509-2.9882-2.3992-3.7772-1.0483-0.78893-2.3668-1.1834-3.9555-1.1834-1.8264 0-3.3557 0.43769-4.5877 1.3131-1.2212 0.87539-2.0804 2.0534-2.5775 3.534-0.49714 1.4698-0.74571 2.9882-0.74571 4.5553 0 2.021 0.2918 3.788 0.87539 5.301 0.59441 1.5022 1.513 2.6262 2.7559 3.3719 1.2428 0.74571 2.5884 1.1186 4.0365 1.1186 1.7616 0 3.253-0.50794 4.4742-1.5238s2.048-2.5235 2.4803-4.5228z"/>
  <path d="m128.46 412.66c0-3.1882 0.8862-5.5495 2.6586-7.0842 1.4806-1.2753 3.2854-1.9129 5.4144-1.9129 2.3668 0 4.3013 0.77813 5.8035 2.3344 1.5022 1.5454 2.2533 3.6853 2.2533 6.4195 0 2.2155-0.33503 3.9609-1.0051 5.2361-0.65925 1.2644-1.6265 2.2479-2.9018 2.9504-1.2644 0.70247-2.6478 1.0537-4.15 1.0537-2.41 0-4.3607-0.77272-5.8522-2.3182-1.4806-1.5454-2.2209-3.7717-2.2209-6.6789zm2.999 0c0 2.2047 0.48092 3.8582 1.4428 4.9606 0.96185 1.0915 2.1723 1.6373 3.6312 1.6373 1.4482 0 2.6532-0.55117 3.615-1.6535 0.96185-1.1024 1.4428-2.7829 1.4428-5.0416 0-2.129-0.48633-3.7393-1.459-4.8309-0.96185-1.1024-2.1615-1.6535-3.5988-1.6535-1.459 0-2.6694 0.54577-3.6312 1.6373-0.96185 1.0915-1.4428 2.7396-1.4428 4.9443z"/>
  <path d="m148.02 421.27v-17.216h2.61v2.4154c0.54037-0.84297 1.259-1.5184 2.1561-2.0264 0.89701-0.51875 1.9183-0.77813 3.0639-0.77813 1.2753 0 2.3182 0.26478 3.1287 0.79434 0.82135 0.52955 1.3995 1.2698 1.7346 2.2209 1.3617-2.0102 3.1341-3.0152 5.3172-3.0152 1.7076 0 3.0206 0.47552 3.9392 1.4266 0.91862 0.94023 1.3779 2.3938 1.3779 4.3607v11.818h-2.9018v-10.845c0-1.1672-0.0973-2.0048-0.2918-2.5127-0.18373-0.51875-0.52416-0.93483-1.0213-1.2482-0.49713-0.31341-1.0807-0.47012-1.7508-0.47012-1.2104 0-2.2155 0.40527-3.0152 1.2158-0.79974 0.79974-1.1996 2.0858-1.1996 3.8582v10.002h-2.918v-11.186c0-1.2969-0.23776-2.2695-0.71329-2.918-0.47552-0.64844-1.2536-0.97266-2.3344-0.97266-0.82135 0-1.5833 0.21615-2.2857 0.64844-0.69167 0.43229-1.1942 1.0645-1.5076 1.8967-0.31341 0.83216-0.47012 2.0318-0.47012 3.5988v8.9322z"/>
  <path d="m175.78 421.27v-17.216h2.61v2.4154c0.54037-0.84297 1.259-1.5184 2.1561-2.0264 0.89701-0.51875 1.9183-0.77813 3.0639-0.77813 1.2753 0 2.3182 0.26478 3.1287 0.79434 0.82135 0.52955 1.3995 1.2698 1.7346 2.2209 1.3617-2.0102 3.1341-3.0152 5.3172-3.0152 1.7076 0 3.0206 0.47552 3.9393 1.4266 0.91862 0.94023 1.3779 2.3938 1.3779 4.3607v11.818h-2.9018v-10.845c0-1.1672-0.0973-2.0048-0.29179-2.5127-0.18373-0.51875-0.52416-0.93483-1.0213-1.2482-0.49714-0.31341-1.0807-0.47012-1.7508-0.47012-1.2104 0-2.2155 0.40527-3.0152 1.2158-0.79974 0.79974-1.1996 2.0858-1.1996 3.8582v10.002h-2.918v-11.186c0-1.2969-0.23776-2.2695-0.71328-2.918-0.47552-0.64844-1.2536-0.97266-2.3344-0.97266-0.82135 0-1.5833 0.21615-2.2857 0.64844-0.69167 0.43229-1.1942 1.0645-1.5076 1.8967-0.31341 0.83216-0.47012 2.0318-0.47012 3.5988v8.9322z"/>
  <path d="m214.81 421.27v-2.5289c-1.3401 1.9453-3.1611 2.918-5.4631 2.918-1.0159 0-1.9669-0.19453-2.8531-0.58359-0.87539-0.38906-1.5292-0.87539-1.9615-1.459-0.42149-0.59441-0.71869-1.3185-0.8916-2.1723-0.11888-0.57279-0.17832-1.4806-0.17832-2.7234v-10.667h2.918v9.5482c0 1.5238 0.0594 2.5505 0.17832 3.0801 0.18372 0.76731 0.57278 1.3725 1.1672 1.8156 0.5944 0.43229 1.3293 0.64844 2.2047 0.64844 0.87539 0 1.6968-0.22155 2.4641-0.66465 0.76732-0.45391 1.3077-1.0645 1.6211-1.8318 0.32421-0.77812 0.48632-1.9021 0.48632-3.3719v-9.224h2.918v17.216z"/>
  <path d="m222.01 421.27v-17.216h2.6262v2.4478c1.2644-1.8913 3.0909-2.8369 5.4793-2.8369 1.0375 0 1.9885 0.18913 2.8531 0.56739 0.87539 0.36745 1.5292 0.85377 1.9615 1.459 0.43229 0.60521 0.73489 1.3239 0.90781 2.156 0.10807 0.54037 0.16211 1.486 0.16211 2.8369v10.586h-2.918v-10.472c0-1.1888-0.11348-2.075-0.34043-2.6586-0.22695-0.5944-0.63223-1.0645-1.2158-1.4104-0.57279-0.35664-1.2482-0.53496-2.0264-0.53496-1.2428 0-2.3182 0.39447-3.226 1.1834-0.89701 0.78893-1.3455 2.2857-1.3455 4.4904v9.4023z"/>
  <path d="m240.51 400.86v-3.3557h2.918v3.3557zm0 20.41v-17.216h2.918v17.216z"/>
  <path d="m259.12 414.96 2.8693 0.37285c-0.31341 1.9777-1.1186 3.5286-2.4154 4.6525-1.2861 1.1132-2.8693 1.6697-4.7498 1.6697-2.356 0-4.2527-0.76732-5.69-2.302-1.4266-1.5454-2.1398-3.7555-2.1398-6.6303 0-1.8588 0.30801-3.4854 0.92402-4.8795s1.5508-2.437 2.8045-3.1287c1.2644-0.70247 2.637-1.0537 4.1176-1.0537 1.8697 0 3.3989 0.47552 4.5877 1.4266 1.1888 0.94023 1.9507 2.2803 2.2857 4.0203l-2.8369 0.43769c-0.27018-1.1564-0.7511-2.0264-1.4428-2.61-0.68086-0.58359-1.5076-0.87539-2.4803-0.87539-1.4698 0-2.664 0.52956-3.5826 1.5887-0.91862 1.0483-1.3779 2.7126-1.3779 4.993 0 2.3128 0.4431 3.9933 1.3293 5.0416 0.88619 1.0483 2.0426 1.5725 3.4691 1.5725 1.1456 0 2.102-0.35124 2.8693-1.0537 0.76732-0.70247 1.2536-1.7832 1.459-3.2422z"/>
  <path d="m275.72 419.14c-1.0807 0.91862-2.1236 1.5671-3.1287 1.9453-0.99427 0.37825-2.0642 0.56738-3.2098 0.56738-1.8913 0-3.3449-0.45931-4.3607-1.3779-1.0159-0.92943-1.5238-2.1128-1.5238-3.5502 0-0.84297 0.18913-1.6103 0.56738-2.302 0.38906-0.70248 0.8916-1.2645 1.5076-1.6859 0.62682-0.42149 1.3293-0.7403 2.1074-0.95645 0.57279-0.1513 1.4374-0.2972 2.5938-0.43769 2.356-0.28099 4.0906-0.61602 5.2037-1.0051 0.0108-0.39987 0.0162-0.65385 0.0162-0.76192 0-1.1888-0.27559-2.0264-0.82676-2.5127-0.7457-0.65925-1.8534-0.98887-3.3232-0.98887-1.3725 0-2.3884 0.24316-3.0476 0.72949-0.64844 0.47553-1.1294 1.3239-1.4428 2.5451l-2.8531-0.38906c0.25937-1.2212 0.68626-2.2047 1.2807-2.9504 0.5944-0.75651 1.4536-1.3347 2.5775-1.7346 1.124-0.41068 2.4262-0.61602 3.9068-0.61602 1.4698 0 2.664 0.17292 3.5826 0.51875 0.91862 0.34583 1.5941 0.78353 2.0264 1.3131 0.43229 0.51875 0.7349 1.178 0.90781 1.9777 0.0973 0.49714 0.1459 1.3942 0.1459 2.691v3.8906c0 2.7126 0.0594 4.431 0.17832 5.1551 0.12969 0.71328 0.37826 1.3995 0.74571 2.0588h-3.0477c-0.30261-0.60521-0.49714-1.3131-0.58359-2.1236zm-0.24317-6.5168c-1.0591 0.43229-2.6478 0.79974-4.766 1.1023-1.1996 0.17292-2.048 0.36745-2.5451 0.5836-0.49714 0.21615-0.8808 0.53496-1.151 0.95644-0.27018 0.41068-0.40527 0.86999-0.40527 1.3779 0 0.77813 0.2918 1.4266 0.87539 1.9453 0.5944 0.51875 1.459 0.77812 2.5938 0.77812 1.124 0 2.1236-0.24316 2.999-0.72949 0.87539-0.49713 1.5184-1.1726 1.9291-2.0264 0.31341-0.65925 0.47012-1.6319 0.47012-2.918z"/>
  <path d="m289.33 418.66 0.42149 2.5775c-0.82135 0.17291-1.5562 0.25937-2.2047 0.25937-1.0591 0-1.8805-0.16751-2.4641-0.50253-0.58359-0.33503-0.99427-0.77272-1.232-1.3131-0.23777-0.55117-0.35665-1.7022-0.35665-3.4529v-9.9049h-2.1398v-2.2695h2.1398v-4.2635l2.9018-1.7508v6.0143h2.9342v2.2695h-2.9342v10.067c0 0.83216 0.0486 1.3671 0.1459 1.6049 0.10807 0.23776 0.27559 0.42689 0.50254 0.56738 0.23776 0.1405 0.57279 0.21075 1.0051 0.21075 0.32422 0 0.75111-0.0378 1.2807-0.11348z"/>
  <path d="m292.19 400.86v-3.3557h2.918v3.3557zm0 20.41v-17.216h2.918v17.216z"/>
  <path d="m298.48 412.66c0-3.1882 0.8862-5.5495 2.6586-7.0842 1.4806-1.2753 3.2854-1.9129 5.4144-1.9129 2.3668 0 4.3013 0.77813 5.8035 2.3344 1.5022 1.5454 2.2533 3.6853 2.2533 6.4195 0 2.2155-0.33503 3.9609-1.0051 5.2361-0.65925 1.2644-1.6265 2.2479-2.9018 2.9504-1.2644 0.70247-2.6478 1.0537-4.15 1.0537-2.41 0-4.3607-0.77272-5.8521-2.3182-1.4806-1.5454-2.2209-3.7717-2.2209-6.6789zm2.999 0c0 2.2047 0.48092 3.8582 1.4428 4.9606 0.96185 1.0915 2.1723 1.6373 3.6312 1.6373 1.4482 0 2.6532-0.55117 3.615-1.6535 0.96185-1.1024 1.4428-2.7829 1.4428-5.0416 0-2.129-0.48633-3.7393-1.459-4.8309-0.96185-1.1024-2.1615-1.6535-3.5988-1.6535-1.459 0-2.6694 0.54577-3.6312 1.6373-0.96185 1.0915-1.4428 2.7396-1.4428 4.9443z"/>
  <path d="m318.04 421.27v-17.216h2.6262v2.4478c1.2644-1.8913 3.0909-2.8369 5.4793-2.8369 1.0375 0 1.9885 0.18913 2.8531 0.56739 0.87539 0.36745 1.5292 0.85377 1.9615 1.459 0.43229 0.60521 0.73489 1.3239 0.90781 2.156 0.10807 0.54037 0.16211 1.486 0.16211 2.8369v10.586h-2.918v-10.472c0-1.1888-0.11348-2.075-0.34043-2.6586-0.22695-0.5944-0.63223-1.0645-1.2158-1.4104-0.57279-0.35664-1.2482-0.53496-2.0264-0.53496-1.2428 0-2.3182 0.39447-3.226 1.1834-0.89701 0.78893-1.3455 2.2857-1.3455 4.4904v9.4023z"/>
  <path d="m335.36 416.13 2.8856-0.4539c0.16211 1.1564 0.61061 2.0426 1.3455 2.6586 0.74571 0.61601 1.7832 0.92402 3.1125 0.92402 1.3401 0 2.3344-0.27018 2.9828-0.81054 0.64843-0.55117 0.97265-1.1942 0.97265-1.9291 0-0.65925-0.28639-1.178-0.85918-1.5562-0.39987-0.25938-1.3941-0.589-2.9828-0.98887-2.1398-0.54037-3.6258-1.0051-4.458-1.3941-0.82135-0.39987-1.4482-0.94564-1.8805-1.6373-0.42148-0.70247-0.63222-1.4752-0.63222-2.3182 0-0.76732 0.17292-1.4752 0.51875-2.1236 0.35664-0.65925 0.83756-1.205 1.4428-1.6373 0.45391-0.33503 1.0699-0.61602 1.848-0.84297 0.78893-0.23776 1.6319-0.35664 2.5289-0.35664 1.3509 0 2.5343 0.19453 3.5502 0.5836 1.0267 0.38906 1.7832 0.91862 2.2695 1.5887 0.48633 0.65925 0.82135 1.5454 1.0051 2.6586l-2.8531 0.38906c-0.12969-0.88619-0.50794-1.5779-1.1348-2.075-0.61601-0.49713-1.4914-0.7457-2.6262-0.7457-1.3401 0-2.2966 0.22155-2.8693 0.66465-0.57279 0.4431-0.85918 0.96185-0.85918 1.5562 0 0.37825 0.11888 0.71868 0.35664 1.0213 0.23776 0.31341 0.61061 0.57279 1.1186 0.77812 0.29179 0.10807 1.151 0.35664 2.5775 0.74571 2.0642 0.55117 3.5016 1.0051 4.3121 1.3617 0.82135 0.34583 1.4644 0.85377 1.9291 1.5238 0.46471 0.67005 0.69707 1.5022 0.69707 2.4965 0 0.97265-0.28639 1.8913-0.85918 2.7559-0.56198 0.85377-1.3779 1.5184-2.4478 1.9939-1.0699 0.46471-2.2803 0.69707-3.6312 0.69707-2.2371 0-3.9447-0.46471-5.1227-1.3941-1.1672-0.92943-1.9129-2.3074-2.2371-4.1338z"/>
  <path d="m373.57 419.14c-1.0807 0.91862-2.1236 1.5671-3.1287 1.9453-0.99427 0.37825-2.0642 0.56738-3.2098 0.56738-1.8913 0-3.3448-0.45931-4.3607-1.3779-1.0159-0.92943-1.5238-2.1128-1.5238-3.5502 0-0.84297 0.18913-1.6103 0.56738-2.302 0.38907-0.70248 0.89161-1.2645 1.5076-1.6859 0.62682-0.42149 1.3293-0.7403 2.1074-0.95645 0.57279-0.1513 1.4374-0.2972 2.5938-0.43769 2.356-0.28099 4.0906-0.61602 5.2037-1.0051 0.0108-0.39987 0.0162-0.65385 0.0162-0.76192 0-1.1888-0.27558-2.0264-0.82675-2.5127-0.74571-0.65925-1.8535-0.98887-3.3232-0.98887-1.3725 0-2.3884 0.24316-3.0476 0.72949-0.64844 0.47553-1.1294 1.3239-1.4428 2.5451l-2.8531-0.38906c0.25937-1.2212 0.68626-2.2047 1.2807-2.9504 0.59441-0.75651 1.4536-1.3347 2.5775-1.7346 1.124-0.41068 2.4262-0.61602 3.9068-0.61602 1.4698 0 2.664 0.17292 3.5826 0.51875 0.91862 0.34583 1.5941 0.78353 2.0264 1.3131 0.43229 0.51875 0.7349 1.178 0.90782 1.9777 0.0973 0.49714 0.14589 1.3942 0.14589 2.691v3.8906c0 2.7126 0.0594 4.431 0.17832 5.1551 0.12969 0.71328 0.37826 1.3995 0.74571 2.0588h-3.0477c-0.3026-0.60521-0.49713-1.3131-0.58359-2.1236zm-0.24317-6.5168c-1.0591 0.43229-2.6478 0.79974-4.766 1.1023-1.1996 0.17292-2.048 0.36745-2.5451 0.5836-0.49713 0.21615-0.88079 0.53496-1.151 0.95644-0.27018 0.41068-0.40527 0.86999-0.40527 1.3779 0 0.77813 0.2918 1.4266 0.87539 1.9453 0.5944 0.51875 1.459 0.77812 2.5938 0.77812 1.124 0 2.1236-0.24316 2.999-0.72949 0.87539-0.49713 1.5184-1.1726 1.9291-2.0264 0.31341-0.65925 0.47011-1.6319 0.47011-2.918z"/>
  <path d="m380.81 421.27v-17.216h2.6262v2.4478c1.2644-1.8913 3.0909-2.8369 5.4793-2.8369 1.0375 0 1.9885 0.18913 2.8531 0.56739 0.87539 0.36745 1.5292 0.85377 1.9615 1.459 0.43229 0.60521 0.7349 1.3239 0.90782 2.156 0.10807 0.54037 0.16211 1.486 0.16211 2.8369v10.586h-2.918v-10.472c0-1.1888-0.11348-2.075-0.34043-2.6586-0.22695-0.5944-0.63223-1.0645-1.2158-1.4104-0.57279-0.35664-1.2482-0.53496-2.0264-0.53496-1.2428 0-2.3182 0.39447-3.226 1.1834-0.897 0.78893-1.3455 2.2857-1.3455 4.4904v9.4023z"/>
  <path d="m410.46 421.27v-2.1723c-1.0915 1.7076-2.6964 2.5613-4.8146 2.5613-1.3725 0-2.637-0.37825-3.7934-1.1348-1.1456-0.75651-2.0372-1.8102-2.6748-3.1611-0.62683-1.3617-0.94024-2.9234-0.94024-4.685 0-1.7184 0.28639-3.2746 0.85918-4.6688 0.57279-1.405 1.432-2.4803 2.5775-3.226 1.1456-0.74571 2.4262-1.1186 3.842-1.1186 1.0375 0 1.9615 0.22155 2.7721 0.66465 0.81055 0.43229 1.4698 0.99968 1.9777 1.7022v-8.527h2.9018v23.765zm-9.224-8.5918c0 2.2047 0.46471 3.8528 1.3941 4.9443 0.92943 1.0915 2.0264 1.6373 3.2908 1.6373 1.2753 0 2.356-0.51875 3.2422-1.5562 0.897-1.0483 1.3455-2.6424 1.3455-4.7822 0-2.356-0.4539-4.0852-1.3617-5.1875-0.90781-1.1024-2.0264-1.6535-3.3557-1.6535-1.2969 0-2.383 0.52956-3.2584 1.5887-0.86458 1.0591-1.2969 2.7288-1.2969 5.0092z"/>
  <path d="m427.89 421.27v-23.765h3.1449v23.765z"/>
  <path d="m436.19 421.27v-17.216h2.6262v2.4478c1.2644-1.8913 3.0909-2.8369 5.4793-2.8369 1.0375 0 1.9885 0.18913 2.8531 0.56739 0.87539 0.36745 1.5292 0.85377 1.9615 1.459 0.43229 0.60521 0.7349 1.3239 0.90781 2.156 0.10807 0.54037 0.16211 1.486 0.16211 2.8369v10.586h-2.918v-10.472c0-1.1888-0.11348-2.075-0.34043-2.6586-0.22695-0.5944-0.63223-1.0645-1.2158-1.4104-0.57279-0.35664-1.2482-0.53496-2.0264-0.53496-1.2428 0-2.3182 0.39447-3.226 1.1834-0.89701 0.78893-1.3455 2.2857-1.3455 4.4904v9.4023z"/>
  <path d="m455.37 421.27v-14.946h-2.5775v-2.2695h2.5775v-1.8318c0-1.1564 0.10267-2.0156 0.30801-2.5775 0.28099-0.75651 0.77272-1.3671 1.4752-1.8318 0.71328-0.47552 1.7076-0.71328 2.9828-0.71328 0.82135 0 1.7292 0.0973 2.7234 0.2918l-0.4377 2.5451c-0.60521-0.10807-1.178-0.16211-1.7184-0.16211-0.8862 0-1.513 0.18913-1.8805 0.56738-0.36745 0.37825-0.55117 1.0861-0.55117 2.1236v1.5887h3.3557v2.2695h-3.3557v14.946z"/>
  <path d="m462.79 412.66c0-3.1882 0.8862-5.5495 2.6586-7.0842 1.4806-1.2753 3.2854-1.9129 5.4144-1.9129 2.3668 0 4.3013 0.77813 5.8035 2.3344 1.5022 1.5454 2.2533 3.6853 2.2533 6.4195 0 2.2155-0.33503 3.9609-1.0051 5.2361-0.65925 1.2644-1.6265 2.2479-2.9018 2.9504-1.2644 0.70247-2.6478 1.0537-4.15 1.0537-2.41 0-4.3607-0.77272-5.8522-2.3182-1.4806-1.5454-2.2209-3.7717-2.2209-6.6789zm2.999 0c0 2.2047 0.48092 3.8582 1.4428 4.9606 0.96185 1.0915 2.1723 1.6373 3.6312 1.6373 1.4482 0 2.6532-0.55117 3.615-1.6535 0.96185-1.1024 1.4428-2.7829 1.4428-5.0416 0-2.129-0.48633-3.7393-1.459-4.8309-0.96185-1.1024-2.1615-1.6535-3.5988-1.6535-1.459 0-2.6694 0.54577-3.6312 1.6373-0.96185 1.0915-1.4428 2.7396-1.4428 4.9443z"/>
  <path d="m482.32 421.27v-17.216h2.6262v2.61c0.67005-1.2212 1.2861-2.0264 1.848-2.4154 0.57279-0.38907 1.1996-0.5836 1.8805-0.5836 0.98347 0 1.9831 0.31341 2.999 0.94024l-1.0051 2.7072c-0.71329-0.42148-1.4266-0.63222-2.1398-0.63222-0.63763 0-1.2104 0.19453-1.7184 0.58359-0.50794 0.37825-0.86998 0.90781-1.0861 1.5887-0.32422 1.0375-0.48633 2.1723-0.48633 3.4043v9.0133z"/>
  <path d="m493.45 421.27v-17.216h2.61v2.4154c0.54037-0.84297 1.259-1.5184 2.1561-2.0264 0.89701-0.51875 1.9183-0.77813 3.0639-0.77813 1.2753 0 2.3182 0.26478 3.1287 0.79434 0.82135 0.52955 1.3995 1.2698 1.7346 2.2209 1.3617-2.0102 3.1341-3.0152 5.3172-3.0152 1.7076 0 3.0206 0.47552 3.9393 1.4266 0.91862 0.94023 1.3779 2.3938 1.3779 4.3607v11.818h-2.9018v-10.845c0-1.1672-0.0973-2.0048-0.29179-2.5127-0.18373-0.51875-0.52416-0.93483-1.0213-1.2482-0.49713-0.31341-1.0807-0.47012-1.7508-0.47012-1.2104 0-2.2155 0.40527-3.0152 1.2158-0.79974 0.79974-1.1996 2.0858-1.1996 3.8582v10.002h-2.918v-11.186c0-1.2969-0.23776-2.2695-0.71328-2.918-0.47552-0.64844-1.2536-0.97266-2.3344-0.97266-0.82135 0-1.5833 0.21615-2.2857 0.64844-0.69167 0.43229-1.1942 1.0645-1.5076 1.8967-0.31341 0.83216-0.47012 2.0318-0.47012 3.5988v8.9322z"/>
  <path d="m532.43 419.14c-1.0807 0.91862-2.1236 1.5671-3.1287 1.9453-0.99427 0.37825-2.0642 0.56738-3.2098 0.56738-1.8913 0-3.3449-0.45931-4.3607-1.3779-1.0159-0.92943-1.5238-2.1128-1.5238-3.5502 0-0.84297 0.18913-1.6103 0.56738-2.302 0.38906-0.70248 0.8916-1.2645 1.5076-1.6859 0.62682-0.42149 1.3293-0.7403 2.1074-0.95645 0.57279-0.1513 1.4374-0.2972 2.5938-0.43769 2.356-0.28099 4.0906-0.61602 5.2037-1.0051 0.0108-0.39987 0.0162-0.65385 0.0162-0.76192 0-1.1888-0.27559-2.0264-0.82676-2.5127-0.7457-0.65925-1.8534-0.98887-3.3232-0.98887-1.3725 0-2.3884 0.24316-3.0476 0.72949-0.64844 0.47553-1.1294 1.3239-1.4428 2.5451l-2.8531-0.38906c0.25937-1.2212 0.68626-2.2047 1.2807-2.9504 0.5944-0.75651 1.4536-1.3347 2.5775-1.7346 1.124-0.41068 2.4262-0.61602 3.9068-0.61602 1.4698 0 2.664 0.17292 3.5826 0.51875 0.91862 0.34583 1.5941 0.78353 2.0264 1.3131 0.43229 0.51875 0.7349 1.178 0.90781 1.9777 0.0973 0.49714 0.1459 1.3942 0.1459 2.691v3.8906c0 2.7126 0.0594 4.431 0.17832 5.1551 0.12969 0.71328 0.37826 1.3995 0.74571 2.0588h-3.0477c-0.30261-0.60521-0.49714-1.3131-0.58359-2.1236zm-0.24317-6.5168c-1.0591 0.43229-2.6478 0.79974-4.766 1.1023-1.1996 0.17292-2.048 0.36745-2.5451 0.5836-0.49714 0.21615-0.8808 0.53496-1.151 0.95644-0.27018 0.41068-0.40527 0.86999-0.40527 1.3779 0 0.77813 0.2918 1.4266 0.87539 1.9453 0.5944 0.51875 1.459 0.77812 2.5938 0.77812 1.124 0 2.1236-0.24316 2.999-0.72949 0.87539-0.49713 1.5184-1.1726 1.9291-2.0264 0.31341-0.65925 0.47012-1.6319 0.47012-2.918z"/>
  <path d="m546.05 418.66 0.42149 2.5775c-0.82135 0.17291-1.5562 0.25937-2.2047 0.25937-1.0591 0-1.8805-0.16751-2.4641-0.50253-0.58359-0.33503-0.99427-0.77272-1.232-1.3131-0.23777-0.55117-0.35665-1.7022-0.35665-3.4529v-9.9049h-2.1398v-2.2695h2.1398v-4.2635l2.9018-1.7508v6.0143h2.9342v2.2695h-2.9342v10.067c0 0.83216 0.0486 1.3671 0.1459 1.6049 0.10807 0.23776 0.27559 0.42689 0.50254 0.56738 0.23776 0.1405 0.57279 0.21075 1.0051 0.21075 0.32422 0 0.75111-0.0378 1.2807-0.11348z"/>
  <path d="m548.9 400.86v-3.3557h2.918v3.3557zm0 20.41v-17.216h2.918v17.216z"/>
  <path d="m555.19 412.66c0-3.1882 0.8862-5.5495 2.6586-7.0842 1.4806-1.2753 3.2854-1.9129 5.4144-1.9129 2.3668 0 4.3013 0.77813 5.8035 2.3344 1.5022 1.5454 2.2533 3.6853 2.2533 6.4195 0 2.2155-0.33503 3.9609-1.0051 5.2361-0.65925 1.2644-1.6265 2.2479-2.9018 2.9504-1.2644 0.70247-2.6478 1.0537-4.15 1.0537-2.41 0-4.3607-0.77272-5.8521-2.3182-1.4806-1.5454-2.2209-3.7717-2.2209-6.6789zm2.999 0c0 2.2047 0.48092 3.8582 1.4428 4.9606 0.96185 1.0915 2.1723 1.6373 3.6312 1.6373 1.4482 0 2.6532-0.55117 3.615-1.6535 0.96185-1.1024 1.4428-2.7829 1.4428-5.0416 0-2.129-0.48633-3.7393-1.459-4.8309-0.96185-1.1024-2.1615-1.6535-3.5988-1.6535-1.459 0-2.6694 0.54577-3.6312 1.6373-0.96185 1.0915-1.4428 2.7396-1.4428 4.9443z"/>
  <path d="m574.76 421.27v-17.216h2.6262v2.4478c1.2644-1.8913 3.0909-2.8369 5.4793-2.8369 1.0375 0 1.9885 0.18913 2.8531 0.56739 0.87539 0.36745 1.5292 0.85377 1.9615 1.459 0.43229 0.60521 0.73489 1.3239 0.90781 2.156 0.10807 0.54037 0.16211 1.486 0.16211 2.8369v10.586h-2.918v-10.472c0-1.1888-0.11348-2.075-0.34043-2.6586-0.22695-0.5944-0.63223-1.0645-1.2158-1.4104-0.57279-0.35664-1.2482-0.53496-2.0264-0.53496-1.2428 0-2.3182 0.39447-3.226 1.1834-0.897 0.78893-1.3455 2.2857-1.3455 4.4904v9.4023z"/>
  <path d="m598.4 421.27 9.1268-23.765h3.3881l9.7266 23.765h-3.5826l-2.7721-7.1977h-9.9373l-2.61 7.1977zm6.8572-9.759h8.0568l-2.4803-6.5816c-0.75651-1.9994-1.3185-3.6421-1.6859-4.9281-0.3026 1.5238-0.72949 3.0368-1.2807 4.5391z"/>
  <path d="m622.27 422.69 2.8369 0.42149c0.11888 0.87539 0.4485 1.513 0.98886 1.9129 0.72409 0.54037 1.713 0.81055 2.9666 0.81055 1.3509 0 2.3938-0.27018 3.1287-0.81055 0.73489-0.54037 1.232-1.2969 1.4914-2.2695 0.15131-0.5944 0.22156-1.8426 0.21075-3.7447-1.2753 1.5022-2.8639 2.2533-4.766 2.2533-2.3668 0-4.1986-0.85378-5.4955-2.5613-1.2969-1.7076-1.9453-3.7555-1.9453-6.1439 0-1.6427 0.2972-3.1557 0.8916-4.5391 0.5944-1.3941 1.4536-2.4695 2.5775-3.226 1.1348-0.75651 2.4641-1.1348 3.9879-1.1348 2.0318 0 3.7069 0.82136 5.0254 2.4641v-2.075h2.691v14.882c0 2.6802-0.27559 4.5769-0.82676 5.69-0.54037 1.124-1.405 2.0102-2.5938 2.6586-1.178 0.64844-2.6316 0.97266-4.3607 0.97266-2.0534 0-3.7123-0.46472-4.9768-1.3942-1.2644-0.91862-1.8751-2.3074-1.8318-4.1662zm2.4154-10.343c0 2.2587 0.4485 3.9068 1.3455 4.9443 0.89701 1.0375 2.021 1.5562 3.3719 1.5562 1.3401 0 2.4641-0.51335 3.3719-1.54 0.90781-1.0375 1.3617-2.6586 1.3617-4.8633 0-2.1074-0.47012-3.6961-1.4104-4.766-0.92943-1.0699-2.0534-1.6049-3.3719-1.6049-1.2969 0-2.3992 0.52956-3.307 1.5887-0.90781 1.0483-1.3617 2.61-1.3617 4.685z"/>
  <path d="m653.07 415.72 3.0152 0.37285c-0.47552 1.7616-1.3563 3.1287-2.6424 4.1014-1.2861 0.97265-2.9288 1.459-4.9281 1.459-2.5181 0-4.5174-0.77272-5.998-2.3182-1.4698-1.5562-2.2047-3.7339-2.2047-6.533 0-2.8964 0.7457-5.1443 2.2371-6.7438s3.4259-2.3992 5.8035-2.3992c2.302 0 4.1824 0.78353 5.6414 2.3506 1.459 1.567 2.1885 3.7717 2.1885 6.6141 0 0.17292-0.005 0.4323-0.0162 0.77813h-12.839c0.10807 1.8913 0.64303 3.3394 1.6049 4.3445 0.96185 1.0051 2.1615 1.5076 3.5988 1.5076 1.0699 0 1.9831-0.28099 2.7396-0.84296 0.75651-0.56198 1.3563-1.459 1.7994-2.691zm-9.5807-4.7174h9.6131c-0.12969-1.4482-0.49714-2.5343-1.1024-3.2584-0.92943-1.124-2.1344-1.6859-3.615-1.6859-1.3401 0-2.4695 0.4485-3.3881 1.3455-0.90781 0.89701-1.4104 2.0966-1.5076 3.5988z"/>
  <path d="m659.77 421.27v-17.216h2.6262v2.4478c1.2644-1.8913 3.0909-2.8369 5.4793-2.8369 1.0375 0 1.9885 0.18913 2.8531 0.56739 0.87539 0.36745 1.5292 0.85377 1.9615 1.459 0.43229 0.60521 0.7349 1.3239 0.90781 2.156 0.10807 0.54037 0.16211 1.486 0.16211 2.8369v10.586h-2.918v-10.472c0-1.1888-0.11348-2.075-0.34043-2.6586-0.22695-0.5944-0.63223-1.0645-1.2158-1.4104-0.57279-0.35664-1.2482-0.53496-2.0264-0.53496-1.2428 0-2.3182 0.39447-3.226 1.1834-0.89701 0.78893-1.3455 2.2857-1.3455 4.4904v9.4023z"/>
  <path d="m689.48 414.96 2.8693 0.37285c-0.31341 1.9777-1.1186 3.5286-2.4154 4.6525-1.2861 1.1132-2.8693 1.6697-4.7498 1.6697-2.356 0-4.2527-0.76732-5.69-2.302-1.4266-1.5454-2.1398-3.7555-2.1398-6.6303 0-1.8588 0.30801-3.4854 0.92402-4.8795 0.61602-1.3941 1.5508-2.437 2.8045-3.1287 1.2644-0.70247 2.637-1.0537 4.1176-1.0537 1.8697 0 3.3989 0.47552 4.5877 1.4266 1.1888 0.94023 1.9507 2.2803 2.2857 4.0203l-2.8369 0.43769c-0.27019-1.1564-0.75111-2.0264-1.4428-2.61-0.68086-0.58359-1.5076-0.87539-2.4803-0.87539-1.4698 0-2.664 0.52956-3.5826 1.5887-0.91862 1.0483-1.3779 2.7126-1.3779 4.993 0 2.3128 0.4431 3.9933 1.3293 5.0416s2.0426 1.5725 3.4691 1.5725c1.1456 0 2.102-0.35124 2.8693-1.0537 0.76731-0.70247 1.2536-1.7832 1.459-3.2422z"/>
  <path d="m699.65 421.3-6.4531-17.248h3.1449l4.8552 13.958 4.8552-13.958h3.1577l-9.1697 24.203h-2.6389z"/>
  <path d="m6.985 464.27 8.7969-22.906h3.2656l9.375 22.906h-3.4531l-2.6719-6.9375h-9.5781l-2.5156 6.9375zm6.6094-9.4062h7.7656l-2.3906-6.3438c-0.72917-1.9271-1.2708-3.5104-1.625-4.75-0.29167 1.4688-0.70312 2.9271-1.2344 4.375z"/>
  <path d="m30.001 465.64 2.7344 0.40625c0.11458 0.84375 0.43229 1.4583 0.95312 1.8438 0.69792 0.52083 1.651 0.78125 2.8594 0.78125 1.3021 0 2.3073-0.26042 3.0156-0.78125 0.70833-0.52083 1.1875-1.25 1.4375-2.1875 0.14583-0.57291 0.21354-1.776 0.20312-3.6094-1.2292 1.4479-2.7604 2.1719-4.5938 2.1719-2.2812 0-4.0469-0.82292-5.2969-2.4688-1.25-1.6458-1.875-3.6198-1.875-5.9219 0-1.5833 0.28646-3.0417 0.85938-4.375 0.57292-1.3438 1.401-2.3802 2.4844-3.1094 1.0938-0.72917 2.375-1.0938 3.8438-1.0938 1.9583 0 3.5729 0.79167 4.8438 2.375v-2h2.5938v14.344c0 2.5833-0.26562 4.4115-0.79688 5.4844-0.52083 1.0833-1.3542 1.9375-2.5 2.5625-1.1354 0.625-2.5365 0.9375-4.2031 0.9375-1.9792 0-3.5781-0.44792-4.7969-1.3438-1.2188-0.88542-1.8073-2.224-1.7656-4.0156zm2.3281-9.9688c0 2.1771 0.43229 3.7656 1.2969 4.7656 0.86458 1 1.9479 1.5 3.25 1.5 1.2917 0 2.375-0.49479 3.25-1.4844 0.875-1 1.3125-2.5625 1.3125-4.6875 0-2.0312-0.45312-3.5625-1.3594-4.5938-0.89583-1.0312-1.9792-1.5469-3.25-1.5469-1.25 0-2.3125 0.51042-3.1875 1.5312-0.875 1.0104-1.3125 2.5156-1.3125 4.5156z"/>
  <path d="m59.688 458.92 2.9062 0.35938c-0.45833 1.6979-1.3073 3.0156-2.5469 3.9531s-2.8229 1.4062-4.75 1.4062c-2.4271 0-4.3542-0.74479-5.7812-2.2344-1.4167-1.5-2.125-3.599-2.125-6.2969 0-2.7917 0.71875-4.9583 2.1562-6.5 1.4375-1.5417 3.3021-2.3125 5.5938-2.3125 2.2188 0 4.0312 0.75521 5.4375 2.2656 1.4062 1.5104 2.1094 3.6354 2.1094 6.375 0 0.16667-0.0052 0.41667-0.01563 0.75h-12.375c0.10417 1.8229 0.61979 3.2188 1.5469 4.1875 0.92708 0.96875 2.0833 1.4531 3.4688 1.4531 1.0312 0 1.9115-0.27083 2.6406-0.8125 0.72917-0.54167 1.3073-1.4062 1.7344-2.5938zm-9.2344-4.5469h9.2656c-0.125-1.3958-0.47917-2.4427-1.0625-3.1406-0.89583-1.0833-2.0573-1.625-3.4844-1.625-1.2917 0-2.3802 0.43229-3.2656 1.2969-0.875 0.86458-1.3594 2.0208-1.4531 3.4688z"/>
  <path d="m66.141 464.27v-16.594h2.5312v2.3594c1.2188-1.8229 2.9792-2.7344 5.2812-2.7344 1 0 1.9167 0.18229 2.75 0.54688 0.84375 0.35417 1.474 0.82292 1.8906 1.4062 0.41667 0.58333 0.70833 1.276 0.875 2.0781 0.10417 0.52083 0.15625 1.4323 0.15625 2.7344v10.203h-2.8125v-10.094c0-1.1458-0.10938-2-0.32812-2.5625-0.21875-0.57291-0.60938-1.026-1.1719-1.3594-0.55208-0.34375-1.2031-0.51563-1.9531-0.51563-1.1979 0-2.2344 0.38021-3.1094 1.1406-0.86458 0.76041-1.2969 2.2031-1.2969 4.3281v9.0625z"/>
  <path d="m94.782 458.19 2.7656 0.35937c-0.30208 1.9062-1.0781 3.401-2.3281 4.4844-1.2396 1.0729-2.7656 1.6094-4.5781 1.6094-2.2708 0-4.099-0.73958-5.4844-2.2188-1.375-1.4896-2.0625-3.6198-2.0625-6.3906 0-1.7917 0.29688-3.3594 0.89062-4.7031 0.59375-1.3438 1.4948-2.349 2.7031-3.0156 1.2188-0.67709 2.5417-1.0156 3.9688-1.0156 1.8021 0 3.276 0.45833 4.4219 1.375 1.1458 0.90625 1.8802 2.1979 2.2031 3.875l-2.7344 0.42188c-0.26042-1.1146-0.72396-1.9531-1.3906-2.5156-0.65625-0.5625-1.4531-0.84375-2.3906-0.84375-1.4167 0-2.5677 0.51042-3.4531 1.5312-0.88542 1.0104-1.3281 2.6146-1.3281 4.8125 0 2.2292 0.42708 3.849 1.2812 4.8594 0.85417 1.0104 1.9688 1.5156 3.3438 1.5156 1.1042 0 2.026-0.33854 2.7656-1.0156 0.73958-0.67709 1.2083-1.7188 1.4062-3.125z"/>
  <path d="m111.31 458.92 2.9062 0.35938c-0.45833 1.6979-1.3073 3.0156-2.5469 3.9531s-2.8229 1.4062-4.75 1.4062c-2.4271 0-4.3542-0.74479-5.7812-2.2344-1.4167-1.5-2.125-3.599-2.125-6.2969 0-2.7917 0.71875-4.9583 2.1563-6.5 1.4375-1.5417 3.3021-2.3125 5.5938-2.3125 2.2188 0 4.0312 0.75521 5.4375 2.2656 1.4062 1.5104 2.1094 3.6354 2.1094 6.375 0 0.16667-0.005 0.41667-0.0156 0.75h-12.375c0.10417 1.8229 0.61979 3.2188 1.5469 4.1875 0.92709 0.96875 2.0833 1.4531 3.4688 1.4531 1.0312 0 1.9115-0.27083 2.6406-0.8125 0.72917-0.54167 1.3073-1.4062 1.7344-2.5938zm-9.2344-4.5469h9.2656c-0.125-1.3958-0.47917-2.4427-1.0625-3.1406-0.89583-1.0833-2.0573-1.625-3.4844-1.625-1.2917 0-2.3802 0.43229-3.2656 1.2969-0.875 0.86458-1.3594 2.0208-1.4531 3.4688z"/>
  <path d="m126.08 453.11c0-3.8021 1.0208-6.776 3.0625-8.9219 2.0417-2.1562 4.6771-3.2344 7.9062-3.2344 2.1146 0 4.0208 0.50521 5.7188 1.5156 1.6979 1.0104 2.9896 2.4219 3.875 4.2344 0.89583 1.8021 1.3438 3.849 1.3438 6.1406 0 2.3229-0.46875 4.401-1.4062 6.2344-0.9375 1.8333-2.2656 3.224-3.9844 4.1719-1.7188 0.9375-3.5729 1.4062-5.5625 1.4062-2.1562 0-4.0833-0.52083-5.7812-1.5625s-2.9844-2.4635-3.8594-4.2656-1.3125-3.7083-1.3125-5.7188zm3.125 0.0469c0 2.7604 0.73958 4.9375 2.2188 6.5312 1.4896 1.5833 3.3542 2.375 5.5938 2.375 2.2812 0 4.1562-0.80208 5.625-2.4062 1.4792-1.6042 2.2188-3.8802 2.2188-6.8281 0-1.8646-0.31771-3.4896-0.95313-4.875-0.625-1.3958-1.5469-2.474-2.7656-3.2344-1.2083-0.77083-2.5677-1.1562-4.0781-1.1562-2.1458 0-3.9948 0.73958-5.5469 2.2188-1.5417 1.4688-2.3125 3.9271-2.3125 7.375z"/>
  <path d="m157.7 464.27v-20.203h-7.5469v-2.7031h18.156v2.7031h-7.5781v20.203z"/>
  <path d="m166.67 464.27 8.7969-22.906h3.2656l9.375 22.906h-3.4531l-2.6719-6.9375h-9.5781l-2.5156 6.9375zm6.6094-9.4062h7.7656l-2.3906-6.3438c-0.72917-1.9271-1.2708-3.5104-1.625-4.75-0.29167 1.4688-0.70312 2.9271-1.2344 4.375z"/>
  <path d="m190.53 464.27v-22.906h3.1094l12.031 17.984v-17.984h2.9062v22.906h-3.1094l-12.031-18v18z"/>
  <path d="m232.97 464.27v-2.0938c-1.0521 1.6458-2.599 2.4688-4.6406 2.4688-1.3229 0-2.5417-0.36458-3.6562-1.0938-1.1042-0.72917-1.9635-1.7448-2.5781-3.0469-0.60417-1.3125-0.90625-2.8177-0.90625-4.5156 0-1.6562 0.27604-3.1562 0.82813-4.5 0.55208-1.3542 1.3802-2.3906 2.4844-3.1094 1.1042-0.71875 2.3385-1.0781 3.7031-1.0781 1 0 1.8906 0.21354 2.6719 0.64063 0.78125 0.41667 1.4167 0.96354 1.9062 1.6406v-8.2188h2.7969v22.906zm-8.8906-8.2812c0 2.125 0.44792 3.7135 1.3438 4.7656 0.89583 1.0521 1.9531 1.5781 3.1719 1.5781 1.2292 0 2.2708-0.5 3.125-1.5 0.86459-1.0104 1.2969-2.5469 1.2969-4.6094 0-2.2708-0.4375-3.9375-1.3125-5s-1.9531-1.5938-3.2344-1.5938c-1.25 0-2.2969 0.51042-3.1406 1.5312-0.83333 1.0208-1.25 2.6302-1.25 4.8281z"/>
  <path d="m241.38 445.61 2.0781-4.375h3.6875l-3.4375 4.375z"/>
  <path d="m250.72 444.6v-3.2344h2.8125v3.2344zm0 19.672v-16.594h2.8125v16.594z"/>
  <path d="m257.83 464.27v-16.594h2.5312v2.3594c1.2188-1.8229 2.9792-2.7344 5.2812-2.7344 1 0 1.9167 0.18229 2.75 0.54688 0.84375 0.35417 1.474 0.82292 1.8906 1.4062 0.41667 0.58333 0.70833 1.276 0.875 2.0781 0.10417 0.52083 0.15625 1.4323 0.15625 2.7344v10.203h-2.8125v-10.094c0-1.1458-0.10937-2-0.32812-2.5625-0.21875-0.57291-0.60938-1.026-1.1719-1.3594-0.55208-0.34375-1.2031-0.51563-1.9531-0.51563-1.1979 0-2.2344 0.38021-3.1094 1.1406-0.86458 0.76041-1.2969 2.2031-1.2969 4.3281v9.0625z"/>
  <path d="m276.31 464.27v-14.406h-2.4844v-2.1875h2.4844v-1.7656c0-1.1146 0.099-1.9427 0.29688-2.4844 0.27083-0.72917 0.74479-1.3177 1.4219-1.7656 0.6875-0.45833 1.6458-0.6875 2.875-0.6875 0.79167 0 1.6667 0.0937 2.625 0.28125l-0.42187 2.4531c-0.58333-0.10417-1.1354-0.15625-1.6562-0.15625-0.85417 0-1.4583 0.18229-1.8125 0.54688-0.35417 0.36458-0.53125 1.0469-0.53125 2.0469v1.5312h3.2344v2.1875h-3.2344v14.406z"/>
  <path d="m283.47 455.97c0-3.0729 0.85417-5.349 2.5625-6.8281 1.4271-1.2292 3.1667-1.8438 5.2188-1.8438 2.2812 0 4.1458 0.75 5.5938 2.25 1.4479 1.4896 2.1719 3.5521 2.1719 6.1875 0 2.1354-0.32292 3.8177-0.96875 5.0469-0.63542 1.2188-1.5677 2.1667-2.7969 2.8438-1.2188 0.67708-2.5521 1.0156-4 1.0156-2.3229 0-4.2031-0.74479-5.6406-2.2344-1.4271-1.4896-2.1406-3.6354-2.1406-6.4375zm2.8906 0c0 2.125 0.46354 3.7188 1.3906 4.7812 0.92709 1.0521 2.0938 1.5781 3.5 1.5781 1.3958 0 2.5573-0.53125 3.4844-1.5938 0.92708-1.0625 1.3906-2.6823 1.3906-4.8594 0-2.0521-0.46875-3.6042-1.4062-4.6562-0.92708-1.0625-2.0833-1.5938-3.4688-1.5938-1.4062 0-2.5729 0.52604-3.5 1.5781-0.92708 1.0521-1.3906 2.6406-1.3906 4.7656z"/>
  <path d="m302.3 464.27v-16.594h2.5312v2.5156c0.64583-1.1771 1.2396-1.9531 1.7812-2.3281 0.55208-0.375 1.1562-0.5625 1.8125-0.5625 0.94791 0 1.9114 0.30208 2.8906 0.90625l-0.96875 2.6094c-0.6875-0.40625-1.375-0.60938-2.0625-0.60938-0.61458 0-1.1667 0.1875-1.6562 0.5625-0.48958 0.36459-0.83854 0.875-1.0469 1.5312-0.3125 1-0.46875 2.0938-0.46875 3.2812v8.6875z"/>
  <path d="m313.02 464.27v-16.594h2.5156v2.3281c0.52083-0.8125 1.2135-1.4635 2.0781-1.9531 0.86458-0.5 1.849-0.75 2.9531-0.75 1.2292 0 2.2344 0.25521 3.0156 0.76563 0.79167 0.51041 1.349 1.224 1.6719 2.1406 1.3125-1.9375 3.0208-2.9062 5.125-2.9062 1.6458 0 2.9115 0.45833 3.7969 1.375 0.88541 0.90625 1.3281 2.3073 1.3281 4.2031v11.391h-2.7969v-10.453c0-1.125-0.0937-1.9323-0.28125-2.4219-0.17709-0.5-0.50521-0.90104-0.98438-1.2031-0.47917-0.30209-1.0417-0.45313-1.6875-0.45313-1.1667 0-2.1354 0.39063-2.9062 1.1719-0.77083 0.77083-1.1562 2.0104-1.1562 3.7188v9.6406h-2.8125v-10.781c0-1.25-0.22917-2.1875-0.6875-2.8125s-1.2083-0.9375-2.25-0.9375c-0.79167 0-1.526 0.20833-2.2031 0.625-0.66667 0.41667-1.151 1.026-1.4531 1.8281-0.30208 0.80208-0.45312 1.9583-0.45312 3.4688v8.6094z"/>
  <path d="m350.59 462.22c-1.0417 0.88541-2.0469 1.5104-3.0156 1.875-0.95833 0.36458-1.9896 0.54687-3.0938 0.54687-1.8229 0-3.224-0.44271-4.2031-1.3281-0.97917-0.89583-1.4688-2.0365-1.4688-3.4219 0-0.8125 0.18229-1.5521 0.54688-2.2188 0.375-0.67708 0.85937-1.2188 1.4531-1.625 0.60417-0.40625 1.2812-0.71354 2.0312-0.92187 0.55209-0.14583 1.3854-0.28646 2.5-0.42188 2.2708-0.27083 3.9427-0.59375 5.0156-0.96875 0.0104-0.38541 0.0156-0.6302 0.0156-0.73437 0-1.1458-0.26562-1.9531-0.79687-2.4219-0.71875-0.63541-1.7865-0.95312-3.2031-0.95312-1.3229 0-2.3021 0.23437-2.9375 0.70312-0.625 0.45833-1.0885 1.276-1.3906 2.4531l-2.75-0.375c0.25-1.1771 0.66146-2.125 1.2344-2.8438 0.57292-0.72917 1.401-1.2865 2.4844-1.6719 1.0833-0.39583 2.3385-0.59375 3.7656-0.59375 1.4167 0 2.5677 0.16667 3.4531 0.5 0.88541 0.33333 1.5364 0.75521 1.9531 1.2656 0.41667 0.5 0.70833 1.1354 0.875 1.9062 0.0937 0.47917 0.14063 1.3438 0.14063 2.5938v3.75c0 2.6146 0.0573 4.2708 0.17187 4.9688 0.125 0.6875 0.36458 1.349 0.71875 1.9844h-2.9375c-0.29167-0.58333-0.47917-1.2656-0.5625-2.0469zm-0.23-6.28c-1.0208 0.41667-2.5521 0.77083-4.5938 1.0625-1.1562 0.16667-1.974 0.35417-2.4531 0.5625-0.47917 0.20833-0.84896 0.51562-1.1094 0.92187-0.26042 0.39583-0.39063 0.83854-0.39063 1.3281 0 0.75 0.28125 1.375 0.84375 1.875 0.57292 0.5 1.4062 0.75 2.5 0.75 1.0833 0 2.0469-0.23438 2.8906-0.70313 0.84375-0.47917 1.4635-1.1302 1.8594-1.9531 0.30209-0.63542 0.45313-1.5729 0.45313-2.8125z"/>
  <path d="m363.72 461.75 0.40625 2.4844c-0.79167 0.16667-1.5 0.25-2.125 0.25-1.0208 0-1.8125-0.16146-2.375-0.48437-0.5625-0.32292-0.95833-0.7448-1.1875-1.2656-0.22917-0.53125-0.34375-1.6406-0.34375-3.3281v-9.5469h-2.0625v-2.1875h2.0625v-4.1094l2.7969-1.6875v5.7969h2.8281v2.1875h-2.8281v9.7031c0 0.80208 0.0469 1.3177 0.14062 1.5469 0.10417 0.22917 0.26563 0.41146 0.48438 0.54688 0.22917 0.13541 0.55208 0.20312 0.96875 0.20312 0.3125 0 0.72396-0.0365 1.2344-0.10937z"/>
  <path d="m366.47 444.6v-3.2344h2.8125v3.2344zm0 19.672v-16.594h2.8125v16.594z"/>
  <path d="m372.53 455.97c0-3.0729 0.85417-5.349 2.5625-6.8281 1.4271-1.2292 3.1667-1.8438 5.2188-1.8438 2.2812 0 4.1458 0.75 5.5938 2.25 1.4479 1.4896 2.1719 3.5521 2.1719 6.1875 0 2.1354-0.32292 3.8177-0.96875 5.0469-0.63542 1.2188-1.5677 2.1667-2.7969 2.8438-1.2188 0.67708-2.5521 1.0156-4 1.0156-2.3229 0-4.2031-0.74479-5.6406-2.2344-1.4271-1.4896-2.1406-3.6354-2.1406-6.4375zm2.8906 0c0 2.125 0.46354 3.7188 1.3906 4.7812 0.92709 1.0521 2.0938 1.5781 3.5 1.5781 1.3958 0 2.5573-0.53125 3.4844-1.5938 0.92708-1.0625 1.3906-2.6823 1.3906-4.8594 0-2.0521-0.46875-3.6042-1.4062-4.6562-0.92708-1.0625-2.0833-1.5938-3.4688-1.5938-1.4062 0-2.5729 0.52604-3.5 1.5781-0.92708 1.0521-1.3906 2.6406-1.3906 4.7656z"/>
  <path d="m391.39 464.27v-16.594h2.5312v2.3594c1.2188-1.8229 2.9792-2.7344 5.2812-2.7344 1 0 1.9167 0.18229 2.75 0.54688 0.84375 0.35417 1.474 0.82292 1.8906 1.4062 0.41667 0.58333 0.70833 1.276 0.875 2.0781 0.10417 0.52083 0.15625 1.4323 0.15625 2.7344v10.203h-2.8125v-10.094c0-1.1458-0.10937-2-0.32812-2.5625-0.21875-0.57291-0.60938-1.026-1.1719-1.3594-0.55208-0.34375-1.2031-0.51563-1.9531-0.51563-1.1979 0-2.2344 0.38021-3.1094 1.1406-0.86458 0.76041-1.2969 2.2031-1.2969 4.3281v9.0625z"/>
  <path d="m429.44 458.92 2.9062 0.35938c-0.45833 1.6979-1.3073 3.0156-2.5469 3.9531s-2.8229 1.4062-4.75 1.4062c-2.4271 0-4.3542-0.74479-5.7812-2.2344-1.4167-1.5-2.125-3.599-2.125-6.2969 0-2.7917 0.71875-4.9583 2.1562-6.5 1.4375-1.5417 3.3021-2.3125 5.5938-2.3125 2.2188 0 4.0312 0.75521 5.4375 2.2656 1.4062 1.5104 2.1094 3.6354 2.1094 6.375 0 0.16667-0.005 0.41667-0.0156 0.75h-12.375c0.10417 1.8229 0.61979 3.2188 1.5469 4.1875 0.92709 0.96875 2.0833 1.4531 3.4688 1.4531 1.0312 0 1.9115-0.27083 2.6406-0.8125 0.72917-0.54167 1.3073-1.4062 1.7344-2.5938zm-9.2344-4.5469h9.2656c-0.125-1.3958-0.47917-2.4427-1.0625-3.1406-0.89583-1.0833-2.0573-1.625-3.4844-1.625-1.2917 0-2.3802 0.43229-3.2656 1.2969-0.875 0.86458-1.3594 2.0208-1.4531 3.4688z"/>
  <path d="m442.03 461.75 0.40625 2.4844c-0.79167 0.16667-1.5 0.25-2.125 0.25-1.0208 0-1.8125-0.16146-2.375-0.48437-0.5625-0.32292-0.95833-0.7448-1.1875-1.2656-0.22917-0.53125-0.34375-1.6406-0.34375-3.3281v-9.5469h-2.0625v-2.1875h2.0625v-4.1094l2.7969-1.6875v5.7969h2.8281v2.1875h-2.8281v9.7031c0 0.80208 0.0469 1.3177 0.14062 1.5469 0.10417 0.22917 0.26563 0.41146 0.48438 0.54688 0.22917 0.13541 0.55208 0.20312 0.96875 0.20312 0.3125 0 0.72396-0.0365 1.2344-0.10937z"/>
  <path d="m464.41 464.27v-2.0938c-1.0521 1.6458-2.599 2.4688-4.6406 2.4688-1.3229 0-2.5417-0.36458-3.6562-1.0938-1.1042-0.72917-1.9635-1.7448-2.5781-3.0469-0.60417-1.3125-0.90625-2.8177-0.90625-4.5156 0-1.6562 0.27604-3.1562 0.82813-4.5 0.55208-1.3542 1.3802-2.3906 2.4844-3.1094 1.1042-0.71875 2.3385-1.0781 3.7031-1.0781 1 0 1.8906 0.21354 2.6719 0.64063 0.78125 0.41667 1.4167 0.96354 1.9062 1.6406v-8.2188h2.7969v22.906zm-8.8906-8.2812c0 2.125 0.44792 3.7135 1.3438 4.7656 0.89583 1.0521 1.9531 1.5781 3.1719 1.5781 1.2292 0 2.2708-0.5 3.125-1.5 0.86459-1.0104 1.2969-2.5469 1.2969-4.6094 0-2.2708-0.4375-3.9375-1.3125-5s-1.9531-1.5938-3.2344-1.5938c-1.25 0-2.2969 0.51042-3.1406 1.5312-0.83333 1.0208-1.25 2.6302-1.25 4.8281z"/>
  <path d="m482.81 458.92 2.9062 0.35938c-0.45833 1.6979-1.3073 3.0156-2.5469 3.9531s-2.8229 1.4062-4.75 1.4062c-2.4271 0-4.3542-0.74479-5.7812-2.2344-1.4167-1.5-2.125-3.599-2.125-6.2969 0-2.7917 0.71875-4.9583 2.1562-6.5 1.4375-1.5417 3.3021-2.3125 5.5938-2.3125 2.2188 0 4.0312 0.75521 5.4375 2.2656 1.4062 1.5104 2.1094 3.6354 2.1094 6.375 0 0.16667-0.005 0.41667-0.0156 0.75h-12.375c0.10417 1.8229 0.61979 3.2188 1.5469 4.1875 0.92709 0.96875 2.0833 1.4531 3.4688 1.4531 1.0312 0 1.9115-0.27083 2.6406-0.8125 0.72917-0.54167 1.3073-1.4062 1.7344-2.5938zm-9.2344-4.5469h9.2656c-0.125-1.3958-0.47917-2.4427-1.0625-3.1406-0.89583-1.0833-2.0573-1.625-3.4844-1.625-1.2917 0-2.3802 0.43229-3.2656 1.2969-0.875 0.86458-1.3594 2.0208-1.4531 3.4688z"/>
  <path d="m508.97 458.19 2.7656 0.35937c-0.30209 1.9062-1.0781 3.401-2.3281 4.4844-1.2396 1.0729-2.7656 1.6094-4.5781 1.6094-2.2708 0-4.099-0.73958-5.4844-2.2188-1.375-1.4896-2.0625-3.6198-2.0625-6.3906 0-1.7917 0.29688-3.3594 0.89063-4.7031 0.59375-1.3438 1.4948-2.349 2.7031-3.0156 1.2188-0.67709 2.5417-1.0156 3.9688-1.0156 1.8021 0 3.276 0.45833 4.4219 1.375 1.1458 0.90625 1.8802 2.1979 2.2031 3.875l-2.7344 0.42188c-0.26042-1.1146-0.72396-1.9531-1.3906-2.5156-0.65625-0.5625-1.4531-0.84375-2.3906-0.84375-1.4167 0-2.5677 0.51042-3.4531 1.5312-0.88541 1.0104-1.3281 2.6146-1.3281 4.8125 0 2.2292 0.42708 3.849 1.2812 4.8594 0.85417 1.0104 1.9688 1.5156 3.3438 1.5156 1.1042 0 2.026-0.33854 2.7656-1.0156 0.73959-0.67709 1.2083-1.7188 1.4062-3.125z"/>
  <path d="m513.09 455.97c0-3.0729 0.85417-5.349 2.5625-6.8281 1.4271-1.2292 3.1667-1.8438 5.2188-1.8438 2.2812 0 4.1458 0.75 5.5938 2.25 1.4479 1.4896 2.1719 3.5521 2.1719 6.1875 0 2.1354-0.32292 3.8177-0.96875 5.0469-0.63542 1.2188-1.5677 2.1667-2.7969 2.8438-1.2188 0.67708-2.5521 1.0156-4 1.0156-2.3229 0-4.2031-0.74479-5.6406-2.2344-1.4271-1.4896-2.1406-3.6354-2.1406-6.4375zm2.8906 0c0 2.125 0.46354 3.7188 1.3906 4.7812 0.92709 1.0521 2.0938 1.5781 3.5 1.5781 1.3958 0 2.5573-0.53125 3.4844-1.5938 0.92708-1.0625 1.3906-2.6823 1.3906-4.8594 0-2.0521-0.46875-3.6042-1.4062-4.6562-0.92708-1.0625-2.0833-1.5938-3.4688-1.5938-1.4062 0-2.5729 0.52604-3.5 1.5781-0.92708 1.0521-1.3906 2.6406-1.3906 4.7656z"/>
  <path d="m531.95 464.27v-16.594h2.5156v2.3281c0.52083-0.8125 1.2135-1.4635 2.0781-1.9531 0.86458-0.5 1.849-0.75 2.9531-0.75 1.2292 0 2.2344 0.25521 3.0156 0.76563 0.79167 0.51041 1.349 1.224 1.6719 2.1406 1.3125-1.9375 3.0208-2.9062 5.125-2.9062 1.6458 0 2.9115 0.45833 3.7969 1.375 0.88541 0.90625 1.3281 2.3073 1.3281 4.2031v11.391h-2.7969v-10.453c0-1.125-0.0937-1.9323-0.28125-2.4219-0.17709-0.5-0.50521-0.90104-0.98438-1.2031-0.47917-0.30209-1.0417-0.45313-1.6875-0.45313-1.1667 0-2.1354 0.39063-2.9062 1.1719-0.77083 0.77083-1.1562 2.0104-1.1562 3.7188v9.6406h-2.8125v-10.781c0-1.25-0.22917-2.1875-0.6875-2.8125s-1.2083-0.9375-2.25-0.9375c-0.79167 0-1.526 0.20833-2.2031 0.625-0.66667 0.41667-1.151 1.026-1.4531 1.8281-0.30208 0.80208-0.45312 1.9583-0.45312 3.4688v8.6094z"/>
  <path d="m558.7 464.27v-16.594h2.5156v2.3281c0.52083-0.8125 1.2135-1.4635 2.0781-1.9531 0.86458-0.5 1.849-0.75 2.9531-0.75 1.2292 0 2.2344 0.25521 3.0156 0.76563 0.79167 0.51041 1.349 1.224 1.6719 2.1406 1.3125-1.9375 3.0208-2.9062 5.125-2.9062 1.6458 0 2.9115 0.45833 3.7969 1.375 0.88541 0.90625 1.3281 2.3073 1.3281 4.2031v11.391h-2.7969v-10.453c0-1.125-0.0937-1.9323-0.28125-2.4219-0.17709-0.5-0.50521-0.90104-0.98438-1.2031-0.47917-0.30209-1.0417-0.45313-1.6875-0.45313-1.1667 0-2.1354 0.39063-2.9062 1.1719-0.77083 0.77083-1.1562 2.0104-1.1562 3.7188v9.6406h-2.8125v-10.781c0-1.25-0.22917-2.1875-0.6875-2.8125s-1.2083-0.9375-2.25-0.9375c-0.79167 0-1.526 0.20833-2.2031 0.625-0.66667 0.41667-1.151 1.026-1.4531 1.8281-0.30208 0.80208-0.45312 1.9583-0.45312 3.4688v8.6094z"/>
  <path d="m596.33 464.27v-2.4375c-1.2917 1.875-3.0469 2.8125-5.2656 2.8125-0.97917 0-1.8958-0.1875-2.75-0.5625-0.84375-0.375-1.474-0.84375-1.8906-1.4062-0.40625-0.57291-0.69271-1.2708-0.85938-2.0938-0.11458-0.55208-0.17187-1.4271-0.17187-2.625v-10.281h2.8125v9.2031c0 1.4688 0.0573 2.4583 0.17187 2.9688 0.17709 0.73958 0.55209 1.3229 1.125 1.75 0.57292 0.41667 1.2812 0.625 2.125 0.625 0.84375 0 1.6354-0.21354 2.375-0.64063 0.73959-0.4375 1.2604-1.026 1.5625-1.7656 0.3125-0.75 0.46875-1.8333 0.46875-3.25v-8.8906h2.8125v16.594z"/>
  <path d="m603.27 464.27v-16.594h2.5312v2.3594c1.2188-1.8229 2.9792-2.7344 5.2812-2.7344 1 0 1.9167 0.18229 2.75 0.54688 0.84375 0.35417 1.474 0.82292 1.8906 1.4062 0.41667 0.58333 0.70833 1.276 0.875 2.0781 0.10417 0.52083 0.15625 1.4323 0.15625 2.7344v10.203h-2.8125v-10.094c0-1.1458-0.10937-2-0.32812-2.5625-0.21875-0.57291-0.60938-1.026-1.1719-1.3594-0.55208-0.34375-1.2031-0.51563-1.9531-0.51563-1.1979 0-2.2344 0.38021-3.1094 1.1406-0.86458 0.76041-1.2969 2.2031-1.2969 4.3281v9.0625z"/>
  <path d="m621.09 444.6v-3.2344h2.8125v3.2344zm0 19.672v-16.594h2.8125v16.594z"/>
  <path d="m639.03 458.19 2.7656 0.35937c-0.30209 1.9062-1.0781 3.401-2.3281 4.4844-1.2396 1.0729-2.7656 1.6094-4.5781 1.6094-2.2708 0-4.099-0.73958-5.4844-2.2188-1.375-1.4896-2.0625-3.6198-2.0625-6.3906 0-1.7917 0.29688-3.3594 0.89063-4.7031 0.59375-1.3438 1.4948-2.349 2.7031-3.0156 1.2188-0.67709 2.5417-1.0156 3.9688-1.0156 1.8021 0 3.276 0.45833 4.4219 1.375 1.1458 0.90625 1.8802 2.1979 2.2031 3.875l-2.7344 0.42188c-0.26042-1.1146-0.72396-1.9531-1.3906-2.5156-0.65625-0.5625-1.4531-0.84375-2.3906-0.84375-1.4167 0-2.5677 0.51042-3.4531 1.5312-0.88541 1.0104-1.3281 2.6146-1.3281 4.8125 0 2.2292 0.42708 3.849 1.2812 4.8594 0.85417 1.0104 1.9688 1.5156 3.3438 1.5156 1.1042 0 2.026-0.33854 2.7656-1.0156 0.73959-0.67709 1.2083-1.7188 1.4062-3.125z"/>
  <path d="m655.03 462.22c-1.0417 0.88541-2.0469 1.5104-3.0156 1.875-0.95833 0.36458-1.9896 0.54687-3.0938 0.54687-1.8229 0-3.224-0.44271-4.2031-1.3281-0.97917-0.89583-1.4688-2.0365-1.4688-3.4219 0-0.8125 0.18229-1.5521 0.54688-2.2188 0.375-0.67708 0.85937-1.2188 1.4531-1.625 0.60417-0.40625 1.2812-0.71354 2.0312-0.92187 0.55209-0.14583 1.3854-0.28646 2.5-0.42188 2.2708-0.27083 3.9427-0.59375 5.0156-0.96875 0.0104-0.38541 0.0156-0.6302 0.0156-0.73437 0-1.1458-0.26562-1.9531-0.79687-2.4219-0.71875-0.63541-1.7865-0.95312-3.2031-0.95312-1.3229 0-2.3021 0.23437-2.9375 0.70312-0.625 0.45833-1.0885 1.276-1.3906 2.4531l-2.75-0.375c0.25-1.1771 0.66146-2.125 1.2344-2.8438 0.57292-0.72917 1.401-1.2865 2.4844-1.6719 1.0833-0.39583 2.3385-0.59375 3.7656-0.59375 1.4167 0 2.5677 0.16667 3.4531 0.5 0.88541 0.33333 1.5364 0.75521 1.9531 1.2656 0.41667 0.5 0.70833 1.1354 0.875 1.9062 0.0937 0.47917 0.14063 1.3438 0.14063 2.5938v3.75c0 2.6146 0.0573 4.2708 0.17187 4.9688 0.125 0.6875 0.36458 1.349 0.71875 1.9844h-2.9375c-0.29167-0.58333-0.47917-1.2656-0.5625-2.0469zm-0.23437-6.2812c-1.0208 0.41667-2.5521 0.77083-4.5938 1.0625-1.1562 0.16667-1.974 0.35417-2.4531 0.5625-0.47917 0.20833-0.84896 0.51562-1.1094 0.92187-0.26042 0.39583-0.39063 0.83854-0.39063 1.3281 0 0.75 0.28125 1.375 0.84375 1.875 0.57292 0.5 1.4062 0.75 2.5 0.75 1.0833 0 2.0469-0.23438 2.8906-0.70313 0.84375-0.47917 1.4635-1.1302 1.8594-1.9531 0.30209-0.63542 0.45313-1.5729 0.45313-2.8125z"/>
  <path d="m668.16 461.75 0.40625 2.4844c-0.79167 0.16667-1.5 0.25-2.125 0.25-1.0208 0-1.8125-0.16146-2.375-0.48437-0.5625-0.32292-0.95833-0.7448-1.1875-1.2656-0.22917-0.53125-0.34375-1.6406-0.34375-3.3281v-9.5469h-2.0625v-2.1875h2.0625v-4.1094l2.7969-1.6875v5.7969h2.8281v2.1875h-2.8281v9.7031c0 0.80208 0.0469 1.3177 0.14062 1.5469 0.10417 0.22917 0.26563 0.41146 0.48438 0.54688 0.22917 0.13541 0.55208 0.20312 0.96875 0.20312 0.3125 0 0.72396-0.0365 1.2344-0.10937z"/>
  <path d="m670.91 444.6v-3.2344h2.8125v3.2344zm0 19.672v-16.594h2.8125v16.594z"/>
  <path d="m676.97 455.97c0-3.0729 0.85417-5.349 2.5625-6.8281 1.4271-1.2292 3.1667-1.8438 5.2188-1.8438 2.2812 0 4.1458 0.75 5.5938 2.25 1.4479 1.4896 2.1719 3.5521 2.1719 6.1875 0 2.1354-0.32292 3.8177-0.96875 5.0469-0.63542 1.2188-1.5677 2.1667-2.7969 2.8438-1.2188 0.67708-2.5521 1.0156-4 1.0156-2.3229 0-4.2031-0.74479-5.6406-2.2344-1.4271-1.4896-2.1406-3.6354-2.1406-6.4375zm2.8906 0c0 2.125 0.46354 3.7188 1.3906 4.7812 0.92709 1.0521 2.0938 1.5781 3.5 1.5781 1.3958 0 2.5573-0.53125 3.4844-1.5938 0.92708-1.0625 1.3906-2.6823 1.3906-4.8594 0-2.0521-0.46875-3.6042-1.4062-4.6562-0.92708-1.0625-2.0833-1.5938-3.4688-1.5938-1.4062 0-2.5729 0.52604-3.5 1.5781-0.92708 1.0521-1.3906 2.6406-1.3906 4.7656z"/>
  <path d="m695.83 464.27v-16.594h2.5312v2.3594c1.2188-1.8229 2.9792-2.7344 5.2812-2.7344 1 0 1.9167 0.18229 2.75 0.54688 0.84375 0.35417 1.474 0.82292 1.8906 1.4062 0.41667 0.58333 0.70833 1.276 0.875 2.0781 0.10417 0.52083 0.15625 1.4323 0.15625 2.7344v10.203h-2.8125v-10.094c0-1.1458-0.10937-2-0.32812-2.5625-0.21875-0.57291-0.60938-1.026-1.1719-1.3594-0.55208-0.34375-1.2031-0.51563-1.9531-0.51563-1.1979 0-2.2344 0.38021-3.1094 1.1406-0.86458 0.76041-1.2969 2.2031-1.2969 4.3281v9.0625z"/>
 </g>
</svg>
