<svg xmlns="http://www.w3.org/2000/svg" xmlns:xlink="http://www.w3.org/1999/xlink" viewBox="0 0 367.48 84.96">
  <defs>
    <radialGradient id="a" cx="42.63" cy="48.08" r="43.27" gradientUnits="userSpaceOnUse">
      <stop offset="0.73" stop-color="#fff"/>
      <stop offset="0.85" stop-color="#fdfdfd"/>
      <stop offset="0.89" stop-color="#f6f6f6"/>
      <stop offset="0.92" stop-color="#ebebeb"/>
      <stop offset="0.95" stop-color="#dadada"/>
      <stop offset="0.97" stop-color="#c4c4c4"/>
      <stop offset="0.99" stop-color="#a9a9a9"/>
      <stop offset="1" stop-color="#949494"/>
    </radialGradient>
  </defs>
  <g>
    <circle cx="42.48" cy="42.48" r="38.29" style="fill: url(#a)"/>
    <path d="M42.48,0A42.48,42.48,0,0,0,0,43.21C.4,66.5,19.89,85,43.18,85h324.3V0Zm0,80.77A38.29,38.29,0,1,1,80.77,42.48,38.29,38.29,0,0,1,42.48,80.77Z" style="fill: #0071bc"/>
    <rect x="44.19" y="29.18" width="1.4" height="15.52" transform="matrix(0.49, -0.87, 0.87, 0.49, -9.31, 57.96)" style="fill: #0071bc"/>
    <rect x="37.14" y="47.29" width="15.49" height="1.4" transform="translate(-17.71 28.01) rotate(-29.21)" style="fill: #0071bc"/>
    <path d="M30.83,31.42a4.23,4.23,0,1,1,4.22,4.22A4.23,4.23,0,0,1,30.83,31.42Z" style="fill: #0071bc"/>
    <path d="M50.51,42.48a4.23,4.23,0,1,1,4.23,4.23A4.24,4.24,0,0,1,50.51,42.48Z" style="fill: #0071bc"/>
    <path d="M30.83,53.49a4.23,4.23,0,1,1,4.22,4.23A4.23,4.23,0,0,1,30.83,53.49Z" style="fill: #0071bc"/>
    <g>
      <path d="M170.52,62.23,150.28,12.81l-13.92,1.08v2.45L138,17.57,119.27,62.23l-6.35,2.52v3.68h23.9V64.75l-7-2.55,3.51-8h18.07l3.37,8-6.43,2.61v3.68H176.8V64.75ZM135.9,46.83l6.74-17.47,6.28,17.47Z" style="fill: #fff"/>
      <polygon points="176.8 12.81 176.8 17.57 182.49 19.25 182.49 62.15 176.8 64.75 176.8 68.43 200.55 68.43 200.55 64.75 193.2 62.61 193.2 32.58 216.33 68.43 230.88 67.6 230.88 19.25 237.01 17.57 237.01 12.81 211.58 12.81 211.58 17.57 220.16 19.25 220.16 49.74 196.72 12.81 176.8 12.81" style="fill: #fff"/>
      <polygon points="241 12.81 241 17.41 247.12 18.33 247.12 62.45 241 64.75 241 68.43 286.34 68.43 287.72 55.15 287.72 50.81 279.75 50.81 276.23 60.46 262.29 60.83 262.29 44.68 279.91 45.45 279.91 36.88 262.29 37.48 262.29 20.26 276.38 20.63 277.76 29.67 283.57 29.67 286.34 17.57 286.34 12.81 241 12.81" style="fill: #fff"/>
      <polygon points="335.79 68.43 335.79 64.75 327.22 62.23 327.22 19.21 335.79 19.95 337.64 32.11 345.75 32.11 347.6 16.3 347.6 12.81 292.35 12.81 292.35 15.78 294.2 32.11 302.31 32.11 304.17 19.95 312.74 19.21 312.74 62.23 304.17 64.75 304.17 68.43 335.79 68.43" style="fill: #fff"/>
    </g>
    <path d="M62.84,21.63c-10.58-12.06-30-11.77-40.65,0C7.72,37.23,15.9,62.9,36.45,67.45v-.08C17.35,62.7,11.32,38.3,25.83,25.29c9.23-8.56,24-8.21,33.33,0C71.89,36,68.94,57.17,54.52,65l-.37-1.87a.53.53,0,0,0-.92-.24L50,66.77a.53.53,0,0,0,.39.87l5.1,0a.53.53,0,0,0,.42-.85l-1.19-1.52C71.32,57.46,75.11,35.35,62.84,21.63Z" style="fill: #0170bc"/>
  </g>
</svg>
