<svg xmlns="http://www.w3.org/2000/svg" xmlns:xlink="http://www.w3.org/1999/xlink" viewBox="0 0 69.89 69.89">
  <defs>
    <radialGradient id="a" cx="34.78" cy="-99.3" r="43.27" gradientTransform="translate(5.97 122.72) scale(0.84 0.84)" gradientUnits="userSpaceOnUse">
      <stop offset="0.73" stop-color="#fff"/>
      <stop offset="0.85" stop-color="#fdfdfd"/>
      <stop offset="0.89" stop-color="#f6f6f6"/>
      <stop offset="0.92" stop-color="#ebebeb"/>
      <stop offset="0.95" stop-color="#dadada"/>
      <stop offset="0.97" stop-color="#c4c4c4"/>
      <stop offset="0.99" stop-color="#a9a9a9"/>
      <stop offset="1" stop-color="#949494"/>
    </radialGradient>
  </defs>
  <g>
    <circle cx="34.95" cy="34.95" r="32.04" style="fill: url(#a)"/>
    <path d="M42.55,41.05a3.79,3.79,0,0,0-3,1.44L28.34,36.2a3.56,3.56,0,0,0,0-2.57L39.59,27.3a3.79,3.79,0,0,0,3,1.43,3.82,3.82,0,1,0-3.82-3.82A3.88,3.88,0,0,0,39,26.19L27.71,32.53a3.79,3.79,0,0,0-2.95-1.44,3.83,3.83,0,1,0,0,7.65,3.79,3.79,0,0,0,3-1.44L39,43.59a3.88,3.88,0,0,0-.24,1.28,3.83,3.83,0,1,0,3.82-3.82Zm0-18.69A2.56,2.56,0,1,1,40,24.91,2.56,2.56,0,0,1,42.55,22.36ZM24.76,37.47a2.56,2.56,0,1,1,2.55-2.55A2.56,2.56,0,0,1,24.76,37.47Zm17.79,10a2.56,2.56,0,1,1,2.56-2.56A2.56,2.56,0,0,1,42.55,47.43Z" style="fill: #0071bc"/>
    <path d="M35,69.89A34.95,34.95,0,1,1,69.89,35,35,35,0,0,1,35,69.89ZM35,3A31.95,31.95,0,1,0,66.89,35,32,32,0,0,0,35,3Z" style="fill: #0071bc"/>
    <path d="M53.46,16.08c-9.62-11-27.26-10.7-37,0-13.16,14.16-5.72,37.5,13,41.63v-.07C12.1,53.41,6.62,31.23,19.81,19.41c8.39-7.79,21.82-7.47,30.3,0,11.57,9.69,8.89,29-4.22,36.07l-.34-1.71a.47.47,0,0,0-.83-.21l-3,3.54a.48.48,0,0,0,.36.79l4.64,0a.48.48,0,0,0,.38-.78L46,55.78C61.16,48.65,64.61,28.55,53.46,16.08Z" style="fill: #0170bc"/>
  </g>
</svg>
