<svg xmlns="http://www.w3.org/2000/svg" xmlns:xlink="http://www.w3.org/1999/xlink" viewBox="0 0 84.58 84.58">
  <defs>
    <radialGradient id="a" cx="42.44" cy="47.89" r="43.27" gradientUnits="userSpaceOnUse">
      <stop offset="0.73" stop-color="#fff" stop-opacity="0"/>
      <stop offset="0.84" stop-color="#fefefe" stop-opacity="0.01"/>
      <stop offset="0.88" stop-color="#f9f9f9" stop-opacity="0.06"/>
      <stop offset="0.91" stop-color="#f0f0f0" stop-opacity="0.14"/>
      <stop offset="0.94" stop-color="#e4e4e4" stop-opacity="0.25"/>
      <stop offset="0.95" stop-color="#d4d4d4" stop-opacity="0.4"/>
      <stop offset="0.97" stop-color="silver" stop-opacity="0.59"/>
      <stop offset="0.99" stop-color="#aaa" stop-opacity="0.8"/>
      <stop offset="1" stop-color="#949494"/>
    </radialGradient>
  </defs>
  <g>
    <circle cx="42.29" cy="42.29" r="38.29" style="fill: url(#a)"/>
    <path d="M50.7,49.07a4.2,4.2,0,0,0-3.27,1.59L35,43.71a4.21,4.21,0,0,0,.26-1.42A3.94,3.94,0,0,0,35,40.87l12.45-7a4.21,4.21,0,0,0,7.5-2.64,4.23,4.23,0,1,0-8.19,1.42l-12.45,7A4.18,4.18,0,0,0,31,38.06a4.23,4.23,0,1,0,3.28,6.87l12.44,7a4.22,4.22,0,1,0,4-2.81Z" style="fill: #0071bc"/>
    <path d="M62.76,21.47c-10.64-12.13-30.14-11.83-40.87,0C7.34,37.15,15.56,63,36.23,67.53v-.08C17,62.75,11,38.22,25.55,25.15c9.28-8.61,24.13-8.26,33.51,0C71.82,35.85,68.9,57.09,54.5,65c0-.13.15.44.11.35C71.29,57.41,75.08,35.24,62.76,21.47Z" style="fill: #0071bc"/>
    <path d="M51.67,62.65c2.07-.67,3,.54,3.49,2.15s.44,3.13-1.58,3.77h0c-.65-.41-.9-.75-1.32-.48a1.1,1.1,0,0,0-.41.85c-2.76.43-6.34.37-6.75-.91s2.46-3.41,4.95-4.67a1.1,1.1,0,0,0,.83.45C51.38,63.79,51.38,63.37,51.67,62.65Z" style="fill: #0170bc"/>
    <path d="M42.29,4A38.29,38.29,0,1,1,4,42.29,38.29,38.29,0,0,1,42.29,4m0-4A42.29,42.29,0,1,0,84.58,42.29,42.34,42.34,0,0,0,42.29,0Z" style="fill: #0071bc"/>
  </g>
</svg>
