<svg xmlns="http://www.w3.org/2000/svg" xmlns:xlink="http://www.w3.org/1999/xlink" viewBox="0 0 176.69 84.96">
  <defs>
    <radialGradient id="a" cx="42.63" cy="48.08" r="43.27" gradientUnits="userSpaceOnUse">
      <stop offset="0.73" stop-color="#fff"/>
      <stop offset="0.85" stop-color="#fdfdfd"/>
      <stop offset="0.89" stop-color="#f6f6f6"/>
      <stop offset="0.92" stop-color="#ebebeb"/>
      <stop offset="0.95" stop-color="#dadada"/>
      <stop offset="0.97" stop-color="#c4c4c4"/>
      <stop offset="0.99" stop-color="#a9a9a9"/>
      <stop offset="1" stop-color="#949494"/>
    </radialGradient>
  </defs>
  <g>
    <g>
      <circle cx="42.48" cy="42.48" r="38.29" style="fill: url(#a)"/>
      <path d="M42.48,0A42.48,42.48,0,0,0,0,43.21C.4,66.5,19.89,85,43.18,85H176.69V0Zm0,80.77A38.29,38.29,0,1,1,80.77,42.48,38.29,38.29,0,0,1,42.48,80.77Z" style="fill: #0071bc"/>
      <rect x="44.34" y="29.15" width="1.4" height="15.52" transform="matrix(0.49, -0.87, 0.87, 0.49, -9.21, 58.08)" style="fill: #0071bc"/>
      <rect x="37.29" y="47.26" width="15.49" height="1.4" transform="translate(-17.68 28.08) rotate(-29.21)" style="fill: #0071bc"/>
      <path d="M31,31.39a4.23,4.23,0,1,1,4.22,4.22A4.23,4.23,0,0,1,31,31.39Z" style="fill: #0071bc"/>
      <path d="M50.66,42.45a4.23,4.23,0,1,1,4.22,4.23A4.23,4.23,0,0,1,50.66,42.45Z" style="fill: #0071bc"/>
      <path d="M31,53.46a4.23,4.23,0,1,1,4.22,4.22A4.23,4.23,0,0,1,31,53.46Z" style="fill: #0071bc"/>
      <path d="M63,21.6c-10.58-12.06-30-11.77-40.65,0C7.87,37.2,16,62.87,36.6,67.42v-.08C17.49,62.67,11.47,38.27,26,25.26c9.23-8.56,24-8.21,33.33,0C72,35.93,69.09,57.14,54.67,65l-.37-1.87a.53.53,0,0,0-.92-.24l-3.29,3.9a.53.53,0,0,0,.4.87l5.1,0A.53.53,0,0,0,56,66.8l-1.19-1.52C71.46,57.43,75.26,35.32,63,21.6Z" style="fill: #0170bc"/>
    </g>
    <g>
      <rect x="107.66" y="5.49" width="63.71" height="73.98" rx="3" style="fill: #fff"/>
      <g>
        <rect x="113.6" y="37.85" width="51.84" height="9.26" rx="3" style="fill: #0071bc"/>
        <rect x="113.6" y="57.62" width="51.84" height="9.26" rx="3" style="fill: #0071bc"/>
        <rect x="113.6" y="18.08" width="51.84" height="9.26" rx="3" style="fill: #0071bc"/>
      </g>
    </g>
  </g>
</svg>
