<svg xmlns="http://www.w3.org/2000/svg" xmlns:xlink="http://www.w3.org/1999/xlink" viewBox="0 0 367.48 84.96">
  <defs>
    <radialGradient id="a" cx="42.63" cy="48.08" r="43.27" gradientUnits="userSpaceOnUse">
      <stop offset="0.73" stop-color="#fff" stop-opacity="0"/>
      <stop offset="0.84" stop-color="#fefefe" stop-opacity="0.01"/>
      <stop offset="0.88" stop-color="#f9f9f9" stop-opacity="0.06"/>
      <stop offset="0.91" stop-color="#f0f0f0" stop-opacity="0.14"/>
      <stop offset="0.94" stop-color="#e4e4e4" stop-opacity="0.25"/>
      <stop offset="0.95" stop-color="#d4d4d4" stop-opacity="0.4"/>
      <stop offset="0.97" stop-color="silver" stop-opacity="0.59"/>
      <stop offset="0.99" stop-color="#aaa" stop-opacity="0.8"/>
      <stop offset="1" stop-color="#949494"/>
    </radialGradient>
  </defs>
  <g>
    <circle cx="42.48" cy="42.48" r="38.29" style="fill: url(#a)"/>
    <path d="M42.48,0A42.48,42.48,0,0,0,0,43.21C.4,66.5,19.89,85,43.18,85h324.3V0Zm0,80.77A38.29,38.29,0,1,1,80.77,42.48,38.29,38.29,0,0,1,42.48,80.77Z" style="fill: #0071bc"/>
    <path d="M50.89,49.26a4.2,4.2,0,0,0-3.27,1.59l-12.44-7a4.21,4.21,0,0,0,.26-1.42,3.94,3.94,0,0,0-.27-1.42l12.45-7a4.21,4.21,0,0,0,7.5-2.64,4.23,4.23,0,1,0-8.19,1.42l-12.45,7a4.18,4.18,0,0,0-3.27-1.59,4.23,4.23,0,1,0,3.28,6.87l12.44,7a4.22,4.22,0,1,0,4-2.81Z" style="fill: #0071bc"/>
    <path d="M166.72,62.23,146.49,12.81l-13.93,1.08v2.45l1.69,1.23L115.47,62.23l-6.35,2.52v3.68H133V64.75l-7-2.55,3.5-8h18.07l3.38,8-6.44,2.61v3.68H173V64.75ZM132.1,46.83l6.74-17.47,6.28,17.47Z" style="fill: #fff"/>
    <polygon points="178.54 12.81 178.54 17.57 184.23 19.25 184.23 62.15 178.54 64.75 178.54 68.43 202.29 68.43 202.29 64.75 194.94 62.61 194.94 32.58 218.07 68.43 232.62 67.6 232.62 19.25 238.75 17.57 238.75 12.81 213.32 12.81 213.32 17.57 221.9 19.25 221.9 49.74 198.46 12.81 178.54 12.81" style="fill: #fff"/>
    <polygon points="244.28 12.81 244.28 17.41 250.41 18.33 250.41 62.45 244.28 64.75 244.28 68.43 289.63 68.43 291.01 55.15 291.01 50.81 283.04 50.81 279.52 60.46 265.58 60.83 265.58 44.68 283.19 45.45 283.19 36.88 265.58 37.48 265.58 20.26 279.67 20.63 281.05 29.67 286.86 29.67 289.63 17.57 289.63 12.81 244.28 12.81" style="fill: #fff"/>
    <polygon points="339.98 68.43 339.98 64.75 331.41 62.23 331.41 19.21 339.98 19.95 341.83 32.11 349.94 32.11 351.79 16.3 351.79 12.81 296.54 12.81 296.54 15.78 298.39 32.11 306.5 32.11 308.36 19.95 316.93 19.21 316.93 62.23 308.36 64.75 308.36 68.43 339.98 68.43" style="fill: #fff"/>
    <path d="M63,21.66c-10.64-12.13-30.14-11.83-40.87,0-14.55,15.66-6.33,41.46,14.34,46v-.08c-19.21-4.7-25.26-29.23-10.68-42.3,9.28-8.61,24.13-8.26,33.51,0C72,36,69.09,57.28,54.69,65.18c0-.13.15.44.11.35C71.48,57.6,75.27,35.43,63,21.66Z" style="fill: #0071bc"/>
    <path d="M51.86,62.84c2.07-.67,3,.54,3.49,2.15s.44,3.13-1.58,3.77h0c-.65-.41-.9-.75-1.32-.48a1.1,1.1,0,0,0-.41.85c-2.76.43-6.34.37-6.75-.91s2.46-3.41,5-4.67a1.1,1.1,0,0,0,.83.45C51.57,64,51.57,63.56,51.86,62.84Z" style="fill: #0170bc"/>
  </g>
</svg>
